<svg xmlns="http://www.w3.org/2000/svg" width="10" height="13" viewBox="0 0 10 13">
  <path fill="#00197C" fill-rule="evenodd" d="M4.994,7.304 C3.726,7.304 2.695,6.273 2.695,5.005 C2.695,3.737 3.726,2.706 4.994,2.706 C6.262,2.706 7.293,3.737 7.293,5.005 C7.293,6.273 6.262,7.304 4.994,7.304 M5,0 C2.29,0 0,2.364 0,5.162 C0,6.306 0.34,7.326 1.049,8.295 L3.811,11.8 C4.059,12.131 4.419,12.512 5,12.512 C5.581,12.512 5.939,12.131 6.181,11.808 L8.961,8.283 C9.66,7.326 10,6.306 10,5.162 C10,2.364 7.71,0 5,0"/>
</svg>
