<svg xmlns="http://www.w3.org/2000/svg" viewBox="0 0 71.5 87.5"><defs><style>.cls-1{fill:none;stroke:#0047b9;stroke-miterlimit:10;stroke-width:1.5px;}</style></defs><title>Asset 2</title><g id="Layer_2" data-name="Layer 2"><g id="Layer_1-2" data-name="Layer 1"><circle class="cls-1" cx="35.75" cy="43.75" r="35"/><line class="cls-1" x1="5.75" y1="43.75" x2="10.75" y2="43.75"/><line class="cls-1" x1="60.75" y1="43.75" x2="65.75" y2="43.75"/><line class="cls-1" x1="35.75" y1="73.75" x2="35.75" y2="68.75"/><line class="cls-1" x1="35.75" y1="18.75" x2="35.75" y2="13.75"/><line class="cls-1" x1="14.54" y1="22.54" x2="18.07" y2="26.07"/><line class="cls-1" x1="53.43" y1="61.43" x2="56.96" y2="64.96"/><line class="cls-1" x1="14.54" y1="64.96" x2="18.07" y2="61.43"/><line class="cls-1" x1="53.43" y1="26.07" x2="56.96" y2="22.54"/><line class="cls-1" x1="8.18" y1="31.93" x2="12.77" y2="33.9"/><line class="cls-1" x1="58.73" y1="53.6" x2="63.32" y2="55.57"/><line class="cls-1" x1="23.93" y1="71.32" x2="25.9" y2="66.73"/><line class="cls-1" x1="45.6" y1="20.77" x2="47.57" y2="16.18"/><line class="cls-1" x1="24.61" y1="15.9" x2="26.47" y2="20.54"/><line class="cls-1" x1="45.03" y1="66.96" x2="46.89" y2="71.6"/><line class="cls-1" x1="7.9" y1="54.89" x2="12.54" y2="53.03"/><line class="cls-1" x1="58.96" y1="34.47" x2="63.6" y2="32.61"/><polyline class="cls-1" points="48.75 43.97 35.75 43.97 35.75 24.96"/><circle class="cls-1" cx="35.75" cy="43.75" r="30"/><polyline class="cls-1" points="25.75 10.24 25.75 0.75 45.75 0.75 45.75 10.24"/><polyline class="cls-1" points="45.75 77.32 45.75 86.75 25.75 86.75 25.75 77.32"/></g></g></svg>