<svg xmlns="http://www.w3.org/2000/svg" width="24" height="16" viewBox="0 0 24 16">
  <g fill="none" fill-rule="evenodd" stroke="#24B4E9" stroke-width="1.5">
    <path d="M12.7501 14.75L2.7501 14.75C1.6451 14.75.7501 13.854.7501 12.75L.7501 2.75C.7501 1.646 1.6451.75 2.7501.75L12.7501.75C13.8551.75 14.7501 1.646 14.7501 2.75L14.7501 12.75C14.7501 13.854 13.8551 14.75 12.7501 14.75zM22.7501 10.9185L22.7501 4.4205C22.7501 3.3085 21.4051 2.7515 20.6181 3.5385L17.3401 6.8165C16.8491 7.3075 16.8521 8.1045 17.3481 8.5905L20.6261 11.8095C21.4161 12.5855 22.7501 12.0255 22.7501 10.9185z"/>
  </g>
</svg>
