<svg xmlns="http://www.w3.org/2000/svg" width="24" height="23" viewBox="0 0 24 23">
  <g fill="none" fill-rule="evenodd" stroke="#24B4E9" stroke-width="1.5">
    <path d="M20.0214 5.593C23.1454 8.717 23.1454 13.782 20.0214 16.907M3.0932 16.9069C-.0308 13.7819-.0308 8.7169 3.0932 5.5929M14.0573 15.7497L15.0573 15.7497C15.6093 15.7497 16.0573 15.3017 16.0573 14.7497L16.0573 9.2497C16.0573 8.4217 15.3853 7.7497 14.5573 7.7497L8.5573 7.7497C7.7293 7.7497 7.0573 8.4217 7.0573 9.2497L7.0573 14.7497C7.0573 15.3017 7.5053 15.7497 8.0573 15.7497L9.0573 15.7497 9.0573 20.7497C9.0573 21.3017 9.5053 21.7497 10.0573 21.7497L13.0573 21.7497C13.6093 21.7497 14.0573 21.3017 14.0573 20.7497L14.0573 15.7497zM11.5573 5.7502C12.9373 5.7502 14.0573 4.6302 14.0573 3.2502 14.0573 1.8692 12.9373.7502 11.5573.7502 10.1763.7502 9.0573 1.8692 9.0573 3.2502 9.0573 4.6302 10.1763 5.7502 11.5573 5.7502z"/>
  </g>
</svg>
