<svg xmlns="http://www.w3.org/2000/svg" width="51" height="65" viewBox="0 0 51 65" xmlns:xlink="http://www.w3.org/1999/xlink">
  <defs>
    <polygon id="a" points="0 0 0 65 50.556 65 50.556 0"/>
  </defs>
  <g fill="none" fill-rule="evenodd">
    <mask id="b" fill="white">
      <use xlink:href="#a"/>
    </mask>
    <path fill="#0045BD" d="M25.2777,65.0001 C27.2407,65.0001 28.6307,63.7991 29.9867,61.9701 L45.2667,42.4121 C48.6987,37.6781 50.5557,32.4271 50.5557,26.4141 C50.5557,12.2151 39.0587,0.0001 25.2777,0.0001 C11.3307,0.0001 -0.0003,12.2151 -0.0003,26.4141 C-0.0003,32.4271 1.8577,37.6781 5.2887,42.4121 L20.5667,61.9701 C21.9227,63.8001 23.2657,65.0001 25.2777,65.0001" mask="url(#b)"/>
    <path fill="#FFFFFF" d="M37.3141,26.5255 C37.3141,33.1725 31.9251,38.5615 25.2781,38.5615 C18.6301,38.5615 13.2411,33.1725 13.2411,26.5255 C13.2411,19.8785 18.6301,14.4895 25.2781,14.4895 C31.9251,14.4895 37.3141,19.8785 37.3141,26.5255"/>
  </g>
</svg>
