<svg xmlns="http://www.w3.org/2000/svg" width="18" height="19" viewBox="0 0 18 19">
  <path fill="#949DA7" fill-rule="evenodd" d="M8.342,10.7927 L4.6233,7.074 L3.9163,7.781 L8.8423,12.707 L13.7683,7.781 L13.0613,7.074 L9.342,10.7933 L9.342,0.0002 L8.342,0.0002 L8.342,10.7927 Z M16.3301,18.7412 L1.6701,18.7412 C0.7491,18.7412 0.0001,17.9922 0.0001,17.0712 L0.0001,15.7412 L1.0001,15.7412 L1.0001,17.0712 C1.0001,17.4402 1.3001,17.7412 1.6701,17.7412 L16.3301,17.7412 C16.6991,17.7412 17.0001,17.4402 17.0001,17.0712 L17.0001,15.7412 L18.0001,15.7412 L18.0001,17.0712 C18.0001,17.9922 17.2511,18.7412 16.3301,18.7412 Z"/>
</svg>
