<svg xmlns="http://www.w3.org/2000/svg" width="135" height="28" viewBox="0 0 135 28">
  <g fill="none" fill-rule="evenodd" transform="translate(0 -1)">
    <polygon fill="#004F1D" points="3.092 28.418 100.498 28.418 100.498 .999 3.092 .999"/>
    <polygon fill="#FFCF00" points=".001 28.418 3.093 28.418 3.093 .999 .001 .999"/>
    <polygon fill="#00801C" points="108.155 28.418 112.748 28.418 112.748 1 108.155 1"/>
    <polygon fill="#00801C" points="100.502 28.418 103.561 28.418 103.561 1 100.502 1"/>
    <polygon fill="#00A500" points="117.341 28.418 120.404 28.418 120.404 1 117.341 1"/>
    <polygon fill="#92CD00" points="126.529 28.418 129.588 28.418 129.588 1 126.529 1"/>
    <polygon fill="#92CD00" points="112.749 28.418 114.279 28.418 114.279 1 112.749 1"/>
    <polygon fill="#004F1D" points="105.092 28.418 106.623 28.418 106.623 1 105.092 1"/>
    <polygon fill="#FFCF00" points="123.466 28.418 124.997 28.418 124.997 1 123.466 1"/>
    <polygon fill="#FFCF00" points="132.649 28.418 134.18 28.418 134.18 1 132.649 1"/>
    <path fill="#FFFFFF" d="M31.2299,11.6281 C31.7559,11.6281 32.3429,11.6461 32.8519,11.9931 C33.1919,12.2151 33.5919,12.6621 33.5919,13.4551 C33.5919,14.3291 33.0399,15.3531 31.5149,15.3531 L30.2309,15.3531 L30.2309,17.7421 L29.1089,17.7421 L29.1089,11.6281 L31.2299,11.6281 Z M31.2739,14.4621 L30.2309,14.4621 L30.2309,12.5181 L31.3179,12.5181 C31.6669,12.5181 31.9779,12.5991 32.1739,12.7681 C32.3709,12.9381 32.4689,13.2231 32.4689,13.4631 C32.4689,13.7231 32.3619,14.0241 32.1659,14.2031 C31.8799,14.4711 31.5239,14.4621 31.2739,14.4621 Z M34.6264,13.6598 C34.9384,13.3658 35.4024,13.1068 36.0974,13.1068 C36.7924,13.1068 37.2564,13.3658 37.5674,13.6598 C38.0314,14.0968 38.2724,14.7738 38.2724,15.4688 C38.2724,16.1638 38.0314,16.8418 37.5674,17.2788 C37.2564,17.5738 36.7924,17.8308 36.0974,17.8308 C35.4024,17.8308 34.9384,17.5738 34.6264,17.2788 C34.1634,16.8418 33.9214,16.1638 33.9214,15.4688 C33.9214,14.7738 34.1634,14.0968 34.6264,13.6598 Z M35.3844,16.7528 C35.4814,16.8688 35.7054,17.0818 36.0974,17.0818 C36.4894,17.0818 36.7124,16.8688 36.8094,16.7528 C36.8814,16.6728 37.1494,16.3158 37.1494,15.4688 C37.1494,14.6228 36.8814,14.2668 36.8094,14.1858 C36.7124,14.0698 36.4894,13.8558 36.0974,13.8558 C35.7054,13.8558 35.4814,14.0698 35.3844,14.1858 C35.3134,14.2668 35.0454,14.6228 35.0454,15.4688 C35.0454,16.3158 35.3134,16.6728 35.3844,16.7528 Z M41.8257,14.863 C41.8077,14.631 41.7187,14.364 41.6027,14.194 C41.4947,14.034 41.2807,13.856 40.9267,13.856 C40.5767,13.856 40.3457,14.034 40.2037,14.274 C39.9797,14.64 39.9627,15.21 39.9627,15.468 C39.9627,15.887 40.0247,16.386 40.2037,16.672 C40.3177,16.85 40.5507,17.082 40.9267,17.082 C41.1917,17.082 41.4147,16.975 41.5847,16.743 C41.7187,16.556 41.8077,16.29 41.8257,16.057 L42.7697,16.173 C42.7157,16.591 42.5287,17.055 42.2007,17.358 C41.9237,17.608 41.4947,17.83 40.8887,17.83 C40.2127,17.83 39.7747,17.564 39.5167,17.321 C39.1697,16.992 38.8397,16.405 38.8397,15.477 C38.8397,14.613 39.1337,14.096 39.3657,13.819 C39.6947,13.427 40.2567,13.106 40.9167,13.106 C41.4777,13.106 41.9417,13.303 42.2347,13.606 C42.5287,13.9 42.7077,14.346 42.7697,14.746 L41.8257,14.863 Z M46.2495,14.863 C46.2315,14.631 46.1445,14.364 46.0275,14.194 C45.9205,14.034 45.7055,13.856 45.3505,13.856 C45.0025,13.856 44.7705,14.034 44.6275,14.274 C44.4045,14.64 44.3875,15.21 44.3875,15.468 C44.3875,15.887 44.4495,16.386 44.6275,16.672 C44.7425,16.85 44.9755,17.082 45.3505,17.082 C45.6165,17.082 45.8395,16.975 46.0095,16.743 C46.1445,16.556 46.2315,16.29 46.2495,16.057 L47.1945,16.173 C47.1415,16.591 46.9545,17.055 46.6245,17.358 C46.3475,17.608 45.9205,17.83 45.3135,17.83 C44.6375,17.83 44.2005,17.564 43.9415,17.321 C43.5945,16.992 43.2645,16.405 43.2645,15.477 C43.2645,14.613 43.5585,14.096 43.7905,13.819 C44.1185,13.427 44.6815,13.106 45.3415,13.106 C45.9015,13.106 46.3655,13.303 46.6595,13.606 C46.9545,13.9 47.1325,14.346 47.1945,14.746 L46.2495,14.863 Z M51.9614,16.423 C51.8004,16.957 51.4794,17.269 51.2134,17.457 C50.8574,17.697 50.3924,17.831 49.9024,17.831 C49.2874,17.831 48.6644,17.573 48.2874,17.189 C47.9404,16.833 47.6824,16.217 47.6824,15.487 C47.6824,14.559 48.0654,13.944 48.4844,13.597 C48.7274,13.392 49.1804,13.107 49.8664,13.107 C50.7314,13.107 51.2834,13.508 51.5764,13.918 C51.8894,14.346 52.0324,14.943 52.0324,15.461 L52.0324,15.665 L48.8064,15.665 C48.8064,15.718 48.7964,16.129 48.9564,16.458 C49.1974,16.957 49.6354,17.082 49.9394,17.082 C50.1794,17.082 50.4814,17.01 50.7314,16.752 C50.8824,16.591 50.9444,16.44 50.9714,16.298 L51.9614,16.423 Z M50.9094,14.986 C50.9094,14.729 50.8474,14.435 50.7124,14.238 C50.5444,13.989 50.2394,13.819 49.9114,13.819 C49.5714,13.819 49.2774,13.989 49.1004,14.203 C48.9564,14.381 48.8324,14.657 48.8324,14.986 L50.9094,14.986 Z M56.435,13.1965 L56.435,17.7425 L55.4,17.7425 L55.4,13.9625 L54.223,13.9625 C54.198,14.5785 54.179,14.8265 54.162,15.2455 C54.134,15.7185 54.099,16.7175 53.698,17.2605 C53.475,17.5545 53.199,17.6715 53.002,17.7245 C52.886,17.7605 52.762,17.7775 52.637,17.7775 C52.548,17.7775 52.457,17.7685 52.371,17.7425 L52.371,16.9585 L52.457,16.9585 C52.592,16.9485 52.771,16.8785 52.886,16.7875 C53.243,16.5035 53.279,15.8615 53.315,15.3535 C53.359,14.6845 53.368,14.2835 53.376,13.6775 L53.385,13.1965 L56.435,13.1965 Z M58.56,14.819 L59.702,14.819 C59.996,14.819 60.566,14.854 60.94,15.23 C61.278,15.559 61.314,16.022 61.314,16.272 C61.314,16.923 61.046,17.252 60.842,17.422 C60.771,17.475 60.432,17.743 59.79,17.743 L57.527,17.743 L57.527,13.197 L58.56,13.197 L58.56,14.819 Z M58.56,16.993 L59.372,16.993 C59.569,16.993 59.781,16.984 59.96,16.834 C60.067,16.735 60.192,16.566 60.192,16.281 C60.192,16.031 60.122,15.835 59.915,15.701 C59.737,15.585 59.513,15.568 59.372,15.568 L58.56,15.568 L58.56,16.993 Z M62.8169,13.1965 L63.6549,14.6135 L64.5279,13.1965 L65.4719,13.1965 L64.1449,15.2555 L65.7239,17.7425 L64.5089,17.7425 L63.4759,16.0305 L62.3899,17.7425 L61.4449,17.7425 L62.9949,15.3805 L61.6049,13.1965 L62.8169,13.1965 Z M66.52,13.6598 C66.832,13.3658 67.297,13.1068 67.993,13.1068 C68.685,13.1068 69.149,13.3658 69.462,13.6598 C69.926,14.0968 70.166,14.7738 70.166,15.4688 C70.166,16.1638 69.926,16.8418 69.462,17.2788 C69.149,17.5738 68.685,17.8308 67.993,17.8308 C67.297,17.8308 66.832,17.5738 66.52,17.2788 C66.056,16.8418 65.816,16.1638 65.816,15.4688 C65.816,14.7738 66.056,14.0968 66.52,13.6598 Z M67.278,16.7528 C67.374,16.8688 67.599,17.0818 67.993,17.0818 C68.384,17.0818 68.608,16.8688 68.705,16.7528 C68.774,16.6728 69.044,16.3158 69.044,15.4688 C69.044,14.6228 68.774,14.2668 68.705,14.1858 C68.608,14.0698 68.384,13.8558 67.993,13.8558 C67.599,13.8558 67.374,14.0698 67.278,14.1858 C67.207,14.2668 66.941,14.6228 66.941,15.4688 C66.941,16.3158 67.207,16.6728 67.278,16.7528 Z M70.7192,14.4255 C70.8502,13.8735 71.1982,13.5705 71.4492,13.4195 C71.6002,13.3215 72.0182,13.1075 72.7292,13.1075 C73.1772,13.1075 73.6302,13.1865 73.9712,13.3745 C74.4692,13.6505 74.5932,14.0515 74.5932,14.3375 C74.5932,14.6485 74.4422,15.2445 73.6692,15.3345 L73.6692,15.3535 C73.9352,15.3895 74.2292,15.5045 74.4072,15.6915 C74.5662,15.8605 74.6942,16.1465 74.6942,16.4485 C74.6942,16.9045 74.4272,17.3045 74.0862,17.5275 C73.6772,17.7945 73.1122,17.8305 72.6952,17.8305 C72.2772,17.8305 71.6352,17.7855 71.1912,17.4295 C70.9392,17.2335 70.7072,16.8945 70.6382,16.4675 L71.5732,16.3065 C71.6092,16.4485 71.6892,16.6625 71.7972,16.7875 C72.0262,17.0555 72.3932,17.0815 72.6242,17.0815 C72.8572,17.0815 73.1042,17.0555 73.3022,16.9215 C73.4802,16.7975 73.5692,16.6275 73.5692,16.4045 C73.5692,16.2175 73.5332,16.0665 73.3752,15.9315 C73.1662,15.7635 72.8922,15.7375 72.6322,15.7375 L72.1602,15.7375 L72.1602,15.0405 L72.6322,15.0405 C72.8112,15.0405 73.0702,15.0045 73.2132,14.9345 C73.3992,14.8355 73.5072,14.6755 73.5072,14.4165 C73.5072,14.2745 73.4522,14.1405 73.3222,14.0345 C73.1122,13.8645 72.8222,13.8555 72.6672,13.8555 C72.4662,13.8555 72.1602,13.8825 71.9092,14.0955 C71.8052,14.1865 71.6612,14.3555 71.6152,14.6215 L70.7192,14.4255 Z M79.9829,12.6969 L77.0329,12.6969 L77.0329,14.0519 L78.3429,14.0519 C78.8149,14.0519 79.2679,14.0879 79.7319,14.4079 C80.1889,14.7199 80.4749,15.1839 80.4749,15.8509 C80.4749,16.4759 80.2419,16.9389 79.9479,17.2339 C79.5039,17.6789 78.9939,17.7419 78.4599,17.7419 L75.6059,17.7419 L75.6059,11.6279 L79.9829,11.6279 L79.9829,12.6969 Z M81.2085,14.4621 C81.3475,13.8471 81.7505,13.5361 81.9895,13.3921 C82.3465,13.1871 82.8205,13.1071 83.4085,13.1071 C84.1545,13.1071 84.9165,13.2051 85.2535,13.9101 C85.4315,14.2751 85.4155,14.6671 85.4155,15.0061 L85.4155,16.7611 C85.4155,17.1271 85.4655,17.4661 85.5475,17.7421 L84.2555,17.7421 C84.2215,17.5641 84.1935,17.3231 84.1865,17.0201 C84.0125,17.3231 83.6055,17.8311 82.6585,17.8311 C82.2405,17.8311 81.8125,17.7251 81.5185,17.4831 C81.2315,17.2521 81.0545,16.8781 81.0545,16.4681 C81.0545,16.0131 81.2515,15.4681 82.0235,15.1481 C82.5265,14.9431 83.3345,14.8721 83.7025,14.8541 L84.1315,14.8361 L84.1315,14.7381 C84.1315,14.6141 84.1195,14.3461 83.9965,14.2041 C83.8265,14.0071 83.4855,13.9981 83.3545,13.9981 C83.1685,13.9981 82.9445,14.0161 82.7555,14.1321 C82.6435,14.2041 82.4875,14.3461 82.4375,14.5961 L81.2085,14.4621 Z M77.0329,16.6729 L78.1809,16.6729 C78.3979,16.6729 78.5909,16.6629 78.7959,16.4579 C78.9939,16.2619 79.0199,16.0399 79.0199,15.8699 C79.0199,15.6739 78.9659,15.4769 78.7959,15.3079 C78.5909,15.1039 78.3359,15.0849 78.1459,15.0849 L77.0329,15.0849 L77.0329,16.6729 Z M87.7739,13.1965 L87.7739,14.8995 L89.2089,14.8995 L89.2089,13.1965 L90.5349,13.1965 L90.5349,17.7425 L89.2089,17.7425 L89.2089,15.8345 L87.7739,15.8345 L87.7739,17.7425 L86.4439,17.7425 L86.4439,13.1965 L87.7739,13.1965 Z M83.7295,15.5941 C83.2845,15.6291 82.8375,15.6741 82.5885,15.9861 C82.5155,16.0751 82.4465,16.2091 82.4465,16.3961 C82.4465,16.5921 82.5425,16.7271 82.6435,16.7971 C82.7665,16.8961 82.9525,16.9391 83.1305,16.9391 C83.4005,16.9391 83.7095,16.8241 83.8885,16.6101 C83.9145,16.5831 84.1315,16.3161 84.1315,15.7991 L84.1315,15.5591 L83.7295,15.5941 Z M92.8969,13.1965 L92.8969,14.9435 L93.2529,14.9435 C93.6359,14.9435 93.7979,14.7555 93.8949,14.5505 C94.0809,14.1505 94.0729,13.8385 94.2429,13.5265 C94.3779,13.2765 94.5559,13.2135 94.6719,13.1965 L95.7659,13.1965 C95.6239,13.3475 95.5009,13.5265 95.4179,13.6865 C95.2759,13.9805 95.1389,14.4625 95.0619,14.6665 C94.9549,14.9525 94.7769,15.2385 94.3199,15.2735 L94.3199,15.2905 C94.5639,15.3265 94.8109,15.4505 95.0009,15.7275 C95.1169,15.8965 95.1979,16.1205 95.3219,16.4675 C95.4459,16.8235 95.5009,16.9485 95.6159,17.2245 C95.7049,17.4305 95.7549,17.5545 95.9099,17.7425 L94.6609,17.7425 C94.4629,17.6795 94.3319,17.5455 94.1729,17.0825 C94.0449,16.7265 94.0269,16.6015 93.9489,16.4045 L93.8829,16.2445 C93.7519,15.9055 93.5739,15.8345 93.2949,15.8345 L92.8969,15.8345 L92.8969,17.7425 L91.5679,17.7425 L91.5679,13.1965 L92.8969,13.1965 Z"/>
    <path fill="#FFCF00" d="M14.0395,14.8512 L14.0395,13.4782 L16.0815,11.4822 L16.0815,12.8442 L14.0395,14.8512 Z M14.0395,9.7687 L14.0395,8.4727 L16.0815,6.4757 L16.0815,7.7607 L14.0395,9.7687 Z M14.0395,11.4499 L14.0395,10.1549 L16.0815,8.1579 L16.0815,9.4439 L14.0395,11.4499 Z M13.4546,6.4919 L13.4546,3.0489 L13.7626,3.0489 L13.7626,8.0879 L11.7196,6.0809 L11.7196,3.0489 L12.0266,3.0489 L12.0266,5.0959 L12.2976,5.3609 L12.2976,3.0489 L12.6056,3.0489 L12.6056,5.6619 L12.8746,5.9269 L12.8746,3.0489 L13.1836,3.0489 L13.1836,6.2269 L13.4546,6.4919 Z M14.0395,13.1315 L14.0395,11.8365 L16.0815,9.8395 L16.0815,11.1245 L14.0395,13.1315 Z M11.7192,12.8434 L11.7192,11.4814 L13.7622,13.4774 L13.7622,14.8504 L11.7192,12.8434 Z M15.7749,5.0964 L15.7749,3.0494 L16.0819,3.0494 L16.0819,6.0804 L14.0399,8.0874 L14.0399,3.0494 L14.3459,3.0494 L14.3459,6.4914 L14.6189,6.2264 L14.6189,3.0494 L14.9259,3.0494 L14.9259,5.9264 L15.1959,5.6614 L15.1959,3.0494 L15.5039,3.0494 L15.5039,5.3604 L15.7749,5.0964 Z M11.7192,7.7609 L11.7192,6.4759 L13.7622,8.4719 L13.7622,9.7689 L11.7192,7.7609 Z M11.7192,9.4425 L11.7192,8.1575 L13.7622,10.1535 L13.7622,11.4495 L11.7192,9.4425 Z M11.7192,11.1247 L11.7192,9.8397 L13.7622,11.8357 L13.7622,13.1317 L11.7192,11.1247 Z M23.8891,12.1838 L18.9211,12.1838 C19.0261,12.0198 19.0861,11.8278 19.0861,11.6188 C19.0861,11.0278 18.6061,10.5478 18.0151,10.5478 C17.4241,10.5478 16.9451,11.0278 16.9451,11.6188 C16.9451,11.8518 17.0201,12.0638 17.1451,12.2388 C17.0521,12.3008 16.9911,12.4048 16.9911,12.5258 C16.9911,12.6448 17.0521,12.7498 17.1451,12.8098 C17.0201,12.9858 16.9451,13.1998 16.9451,13.4318 C16.9451,14.0228 17.4241,14.5018 18.0151,14.5018 C18.6061,14.5018 19.0861,14.0228 19.0861,13.4318 C19.0861,13.2238 19.0261,13.0308 18.9211,12.8668 L22.6171,12.8668 L22.6171,13.0908 L22.2511,13.0908 L22.2511,13.4058 L22.6171,13.4058 L22.6171,13.7328 L22.2511,13.7328 L22.2511,14.3338 L22.6171,14.3338 L22.6171,14.0618 L23.1591,14.0618 L23.1591,14.3338 L23.5221,14.3338 L23.5221,13.7328 L23.1591,13.7328 L23.1591,13.4058 L23.5221,13.4058 L23.5221,13.0908 L23.1591,13.0908 L23.1591,12.8668 L23.8891,12.8668 C24.0301,12.8668 24.1471,12.7488 24.1471,12.6048 L24.1471,12.4458 C24.1471,12.3028 24.0301,12.1838 23.8891,12.1838 M18.5681,13.4318 C18.5681,13.7358 18.3191,13.9828 18.0151,13.9828 C17.7111,13.9828 17.4631,13.7358 17.4631,13.4318 C17.4631,13.3208 17.4961,13.2148 17.5541,13.1278 L17.7081,12.8688 C17.6141,12.7858 17.5531,12.6628 17.5531,12.5258 C17.5531,12.3888 17.6141,12.2658 17.7081,12.1818 L17.5541,11.9208 C17.4961,11.8348 17.4631,11.7308 17.4631,11.6188 C17.4631,11.3148 17.7111,11.0668 18.0151,11.0668 C18.3191,11.0668 18.5681,11.3148 18.5681,11.6188 C18.5681,11.8438 18.3081,12.3798 18.3081,12.3798 L18.3081,12.6708 C18.3081,12.6708 18.5681,13.2058 18.5681,13.4318"/>
    <path fill="#FFFFFF" d="M16.8784,5.5182 C16.7304,5.5182 16.5834,5.5212 16.4394,5.5282 L16.4394,6.1542 C16.5834,6.1452 16.7304,6.1432 16.8784,6.1432 C21.5994,6.1432 25.4284,9.9702 25.4284,14.6932 C25.4284,19.4142 21.5994,23.2422 16.8784,23.2422 C12.1544,23.2422 8.3264,19.4142 8.3264,14.6932 C8.3264,12.0722 9.5064,9.7272 11.3624,8.1592 L11.3624,7.3602 C9.1404,9.0352 7.7024,11.6962 7.7024,14.6932 C7.7024,19.7592 11.8104,23.8662 16.8784,23.8662 C21.9444,23.8662 26.0514,19.7592 26.0514,14.6932 C26.0514,9.6262 21.9444,5.5182 16.8784,5.5182 M14.4878,15.9167 L15.6798,15.9167 C15.9888,15.9167 16.2028,15.9807 16.3298,16.1007 C16.4548,16.2187 16.5118,16.4337 16.5118,16.7427 L16.5118,20.1597 C16.5118,20.4707 16.4548,20.6847 16.3298,20.8047 C16.1388,20.9927 15.7928,20.9927 15.5028,20.9927 C15.4388,20.9877 15.3758,20.9877 15.3188,20.9877 L15.3188,22.6067 C15.4388,22.6297 15.5588,22.6507 15.6798,22.6697 L15.6798,21.3397 C16.2288,21.3397 16.5898,21.1517 16.7588,20.7767 L16.7588,22.7567 C16.7978,22.7577 16.8368,22.7587 16.8788,22.7587 C16.9528,22.7587 17.0288,22.7577 17.1038,22.7557 L17.1038,16.8057 C17.1038,16.4907 17.1688,16.2697 17.2868,16.1447 C17.4048,16.0187 17.6218,15.9557 17.9248,15.9557 C18.2338,15.9557 18.6858,15.9107 18.9208,16.1447 C19.0408,16.2697 19.0958,16.4907 19.0958,16.8057 L19.0958,18.5587 L18.2788,18.5587 L18.2788,16.6867 L17.9248,16.6867 L17.9248,22.6907 C18.0438,22.6767 18.1608,22.6577 18.2788,22.6367 L18.2788,18.9117 L19.0958,18.9117 L19.0958,22.4487 C19.2638,22.4007 19.4318,22.3467 19.5948,22.2887 L19.5948,19.0507 C19.5948,18.6847 19.6828,18.4077 20.0568,18.2827 L19.6448,16.0297 L20.4718,16.0297 L20.6108,18.4907 L20.7118,18.4907 L20.8498,16.0297 L21.7208,16.0297 L21.2548,18.2827 C21.6448,18.4197 21.7208,18.6597 21.7208,19.0507 L21.7208,21.1427 C21.9638,20.9597 22.1948,20.7647 22.4148,20.5567 L22.4148,16.0117 L24.8358,16.0117 C24.8528,15.9027 24.8688,15.7937 24.8828,15.6837 L19.2168,15.6837 L19.2968,16.0897 C19.1168,15.7617 18.7768,15.5957 18.2788,15.5957 L17.9248,15.5957 C17.3248,15.5957 16.9588,15.8347 16.8208,16.3107 C16.6918,15.8117 16.3118,15.5637 15.6798,15.5637 L14.1288,15.5637 L14.1288,22.2777 C14.2478,22.3207 14.3678,22.3607 14.4878,22.3987 L14.4878,15.9167 Z M22.0098,18.5017 L21.6198,18.1297 L22.0098,16.1087 L22.0098,18.5017 Z M15.32,20.2803 L15.32,16.6223 L15.68,16.6223 L15.68,20.2803 L15.32,20.2803 Z M24.5444,17.2033 C24.3204,16.9793 23.9234,16.9843 23.5694,16.9953 L23.3674,16.9953 L23.3674,16.6673 L24.6984,16.6673 C24.6534,16.8483 24.6004,17.0263 24.5444,17.2033 Z M23.3667,19.4821 L23.3667,17.6511 L23.7707,17.6511 L23.7707,18.8821 C23.6437,19.0881 23.5097,19.2891 23.3667,19.4821 Z M9.8608,11.5334 C9.8608,11.5334 10.0788,12.2714 10.8968,13.0914 C11.3288,13.5214 11.8648,14.0344 12.6658,14.8164 C13.0078,15.1504 13.6748,15.6614 13.6748,16.9774 L13.6748,18.4564 C13.5438,18.1284 13.4408,17.9364 12.8498,17.3594 C12.8238,17.3324 10.9228,15.4634 10.7358,15.2814 C10.4178,14.9604 9.8608,14.1424 9.8608,12.8674 L9.8608,11.5334 Z M12.6655,18.1188 C13.0085,18.4518 13.6755,18.9618 13.6755,20.2788 L13.6755,21.8398 C13.5445,21.5118 13.4415,21.2378 12.8515,20.6608 C12.8275,20.6358 10.9225,18.7728 10.7345,18.5908 C10.4405,18.2578 9.8615,17.4438 9.8615,16.1678 L9.8615,15.0168 C9.8615,15.0168 10.0785,15.5728 10.8975,16.3918 C11.3285,16.8218 11.8655,17.3358 12.6655,18.1188 Z M20.4721,21.9137 L20.4721,18.9487 L20.8441,18.9487 L20.8441,21.7167 C20.7221,21.7857 20.5981,21.8517 20.4721,21.9137 Z"/>
  </g>
</svg>
