<svg xmlns="http://www.w3.org/2000/svg" width="147" height="28" viewBox="0 0 147 28">
  <path fill="#00A10B" fill-rule="evenodd" d="M38.2372,17.1157 C37.6912,16.5087 37.2662,15.7197 37.0842,14.6877 C36.7802,13.7777 36.6592,12.6847 36.6592,11.5317 C36.6592,10.3177 36.7802,9.1647 37.0842,8.1937 C37.3872,7.2227 37.8122,6.3727 38.4202,5.7047 C39.0262,5.0377 39.8152,4.4907 40.7252,4.1277 C41.6972,3.7627 42.7892,3.5807 44.1252,3.5807 C44.4272,3.5807 44.7922,3.6417 45.1562,3.6417 C45.5812,3.7027 45.9452,3.7027 46.3702,3.7627 C46.7952,3.8237 47.1592,3.8847 47.5232,4.0057 C47.8872,4.1277 48.1912,4.2487 48.4952,4.3697 L48.4952,7.3447 L47.5232,7.3447 C47.3412,6.4337 46.9772,5.7057 46.3702,5.2807 C45.7632,4.8557 45.0352,4.6127 44.1852,4.6127 C43.2752,4.6127 42.5472,4.8557 42.0002,5.2197 C41.4542,5.6447 41.0902,6.1307 40.7862,6.7377 C40.4832,7.3447 40.3002,8.0117 40.2402,8.8007 C40.1792,9.5897 40.1192,10.3787 40.1192,11.1067 C40.1192,12.0777 40.1792,12.9277 40.3002,13.7777 C40.4222,14.5667 40.6652,15.2947 40.9682,15.9017 C41.3332,16.4487 41.7582,16.9337 42.3642,17.2977 C42.9112,17.6617 43.7002,17.8447 44.6102,17.8447 C45.0952,17.8447 45.5202,17.8447 45.8842,17.7827 C46.2492,17.7827 46.5522,17.6617 46.8552,17.6017 C47.1592,17.4797 47.4022,17.4197 47.6442,17.2977 C47.8872,17.1767 48.1312,17.0547 48.3732,16.9337 L48.7982,17.8447 C48.5552,17.9657 48.2522,18.0867 47.9482,18.2687 C47.5842,18.3897 47.2192,18.5727 46.7952,18.6937 C46.3702,18.8757 45.9452,18.9977 45.3992,19.0577 C44.9142,19.1187 44.3062,19.1787 43.7002,19.1787 C42.4242,19.1787 41.3932,18.9977 40.4832,18.6337 C39.5722,18.2687 38.8442,17.7827 38.2372,17.1157 Z M97.5954,18.6935 C96.8074,18.8155 96.0184,18.8155 95.1074,18.8155 L89.4624,18.8155 L89.4624,18.3295 C89.5234,18.3295 89.5844,18.3295 89.7664,18.2685 C89.9484,18.2685 90.0704,18.1475 90.1304,18.0865 C90.2514,18.0265 90.3124,17.9045 90.3124,17.7225 C90.3734,17.6015 90.3734,17.3585 90.3734,17.1155 L90.3734,14.0805 L90.3734,8.5585 L90.3734,5.5235 C90.3734,5.2805 90.3124,5.0985 90.3124,4.9165 C90.2514,4.7345 90.1914,4.6125 90.1304,4.5525 C90.0704,4.4915 89.9484,4.4305 89.7664,4.3705 C89.5844,4.3705 89.5234,4.3095 89.4624,4.3095 L89.4624,3.8235 L90.3124,3.8235 L100.6304,3.8235 L100.6304,7.1625 L99.8414,7.1625 C99.7204,6.6155 99.5384,6.1905 99.4164,5.8875 C99.2954,5.5835 99.1134,5.3415 98.8714,5.1595 C98.6884,4.9765 98.3844,4.9165 98.0214,4.8555 C97.6574,4.7945 97.1704,4.7945 96.6244,4.7945 L94.8044,4.7945 C94.3184,4.7945 94.0154,4.7945 93.8324,4.9165 C93.6514,5.0375 93.5904,5.2805 93.5904,5.6445 L93.5904,9.2255 L94.8654,9.2255 C96.0794,9.2255 97.1104,9.2865 97.9594,9.4685 C98.8094,9.6505 99.4774,9.8935 100.0234,10.2575 C100.5704,10.6825 100.9344,11.1065 101.1764,11.7135 C101.4194,12.3205 101.5404,12.9885 101.5404,13.8385 C101.5404,14.9915 101.3594,15.9015 100.9954,16.5695 C100.6914,17.2375 100.2054,17.7225 99.5984,18.0865 C99.0524,18.3905 98.3244,18.6335 97.5954,18.6935 Z M93.8934,17.6015 C94.0154,17.7225 94.1974,17.7835 94.3784,17.8445 C94.5614,17.9045 94.8654,17.9045 95.2294,17.9655 C95.5924,17.9655 95.9564,17.9045 96.3214,17.8445 C96.6244,17.7225 96.9284,17.5405 97.2324,17.2975 C97.5354,16.9945 97.7174,16.6305 97.8994,16.0835 C98.0814,15.5375 98.1424,14.8705 98.1424,13.9595 C98.1424,12.6245 97.8994,11.6535 97.4144,11.0465 C96.9284,10.4395 96.0794,10.1365 94.9254,10.1365 L93.6514,10.1365 L93.6514,16.4485 C93.6514,16.7515 93.7114,16.9945 93.7114,17.1765 C93.7114,17.3585 93.7724,17.4795 93.8934,17.6015 Z M81.6341,18.3294 L81.6341,18.7544 L76.7181,18.7544 L76.7181,18.2694 C76.7781,18.2694 76.8391,18.2694 77.0201,18.2084 C77.2031,18.2084 77.3241,18.0864 77.3851,18.0264 C77.5071,17.9654 77.5671,17.8444 77.5671,17.6624 C77.6281,17.5404 77.6281,17.2974 77.6281,17.0554 L77.6281,5.5234 C77.6281,5.2804 77.5671,5.0984 77.5671,4.9164 C77.5071,4.7344 77.4451,4.6124 77.3851,4.5524 C77.3241,4.4914 77.2031,4.4304 77.0201,4.3704 C76.8391,4.3704 76.7781,4.3094 76.7181,4.3094 L76.7181,3.8234 L77.5671,3.8234 L82.6651,3.8234 C83.3931,3.8234 84.0611,3.8844 84.7291,3.9454 C85.3961,4.0054 86.0041,4.1884 86.4891,4.4914 C86.9741,4.7944 87.3991,5.2804 87.7031,5.8264 C87.9451,6.3734 88.1281,7.1624 88.1281,8.1334 C88.1281,9.1654 87.9451,10.0144 87.6421,10.6214 C87.3391,11.2894 86.9141,11.7134 86.3681,12.0784 C85.8211,12.3814 85.2151,12.6244 84.4861,12.7454 C83.7581,12.8674 83.0291,12.9274 82.2401,12.9274 L80.7231,12.9274 L80.7231,17.1154 C80.7231,17.3584 80.7841,17.5404 80.7841,17.7224 C80.8451,17.9044 80.9051,18.0264 80.9661,18.0864 C81.0261,18.1474 81.1481,18.2084 81.3301,18.2694 C81.5131,18.2694 81.5731,18.3294 81.6341,18.3294 Z M80.7841,5.5234 L80.7841,11.9574 L82.3011,11.9574 C83.2121,11.9574 83.8791,11.5924 84.2431,10.9244 C84.6071,10.2574 84.7901,9.2864 84.7901,8.0114 C84.7901,7.4044 84.7291,6.8584 84.6071,6.4334 C84.4261,6.0084 84.2431,5.6444 84.0011,5.4014 C83.6971,5.1594 83.4541,4.9774 83.0901,4.8554 C82.7261,4.7944 82.3621,4.7344 81.9981,4.7344 C81.6941,4.7344 81.5131,4.7944 81.3301,4.7944 C81.1481,4.7944 81.0261,4.8554 80.9661,4.9164 C80.9051,4.9774 80.8451,5.0374 80.8451,5.1594 C80.7841,5.2804 80.7841,5.4014 80.7841,5.5234 Z M74.7147,15.3554 L74.7147,18.7544 L63.9107,18.7544 L63.9107,18.2694 C63.9717,18.2694 64.0317,18.2694 64.2147,18.2084 C64.3967,18.2084 64.5177,18.0864 64.5777,18.0264 C64.6997,17.9654 64.7607,17.8444 64.7607,17.6624 C64.8207,17.5404 64.8207,17.2974 64.8207,17.0554 L64.8207,5.5234 C64.8207,5.2804 64.7607,5.0984 64.7607,4.9164 C64.6997,4.7344 64.6397,4.6124 64.5777,4.5524 C64.5177,4.4914 64.3967,4.4304 64.2147,4.3704 C64.0317,4.3704 63.9717,4.3094 63.9107,4.3094 L63.9107,3.8234 L64.7607,3.8234 L74.3507,3.8234 L74.3507,7.0404 L73.5617,7.0404 C73.4397,6.4944 73.2577,6.0694 73.1367,5.7664 C73.0147,5.4624 72.8327,5.2194 72.5897,5.0374 C72.4077,4.8554 72.1047,4.7944 71.7397,4.7344 C71.3757,4.6734 70.8907,4.6734 70.3447,4.6734 L68.7057,4.6734 C68.4027,4.6734 68.2207,4.6734 68.0987,4.7944 C68.0377,4.9164 67.9777,5.1594 67.9777,5.4624 L67.9777,10.4394 L69.9807,10.4394 L70.5867,10.4394 C70.8297,10.4394 71.0677,10.4094 71.3157,10.3784 C71.5567,10.3494 71.8007,10.3174 72.0437,10.2574 C72.2867,10.1964 72.4687,10.1364 72.6517,10.0144 L72.6517,11.9574 C72.4687,11.8354 72.2867,11.7744 72.0437,11.7134 C71.8047,11.6544 71.5647,11.6114 71.3157,11.5924 C71.0727,11.5734 70.8297,11.5314 70.5867,11.5314 L69.9807,11.5314 L67.9777,11.5314 L67.9777,16.2664 C67.9777,16.6304 67.9777,16.8734 68.0377,17.1154 C68.0377,17.2974 68.1587,17.4804 68.3417,17.6014 C68.5237,17.7224 68.7667,17.7834 69.1307,17.8444 C69.4347,17.9044 69.9197,17.9044 70.5267,17.9044 C71.1937,17.9044 71.6797,17.9044 72.0437,17.8444 C72.4077,17.8444 72.7117,17.7224 72.8937,17.5404 C73.1367,17.3584 73.2577,17.1154 73.3787,16.7514 C73.5007,16.3874 73.6217,15.9624 73.7427,15.3554 L74.7147,15.3554 Z M58.2058,18.6935 C57.4168,18.8155 56.6888,18.8155 55.7778,18.8155 L50.1338,18.8155 L50.1338,18.2685 C50.1938,18.2685 50.2548,18.2685 50.4368,18.2085 C50.6188,18.2085 50.7398,18.0865 50.8008,18.0265 C50.9228,17.9655 50.9828,17.8445 50.9828,17.6625 C51.0438,17.4795 51.0438,17.2975 51.0438,17.0555 L51.0438,16.2665 L51.0438,16.2055 L51.0438,13.9595 L51.0438,8.4975 L51.0438,5.8265 L51.0438,5.5235 C51.0438,5.2805 50.9828,5.0985 50.9828,4.9165 C50.9228,4.7345 50.8608,4.6125 50.8008,4.5525 C50.7398,4.4915 50.6188,4.4305 50.4368,4.3705 C50.2548,4.3705 50.1938,4.3095 50.1338,4.3095 L50.1338,3.8235 L50.9828,3.8235 L61.3008,3.8235 L61.3008,7.1625 L60.5118,7.1625 C60.3908,6.6155 60.2088,6.1905 60.0868,5.8875 C59.9658,5.5835 59.7838,5.3415 59.5408,5.1595 C59.3588,4.9765 59.0558,4.9165 58.6908,4.8555 C58.3268,4.7945 57.8418,4.7945 57.2948,4.7945 L55.4748,4.7945 C54.9888,4.7945 54.6858,4.7945 54.5028,4.9165 C54.3208,5.0375 54.2608,5.2805 54.2608,5.6445 L54.2608,9.2255 L55.5348,9.2255 C56.7488,9.2255 57.7808,9.2865 58.6308,9.4685 C59.4808,9.6505 60.1478,9.8935 60.6938,10.2575 C61.2398,10.6825 61.6048,11.1065 61.8478,11.7135 C62.0898,12.3205 62.2118,12.9885 62.2118,13.8385 C62.2118,14.9915 62.0288,15.9015 61.6648,16.5695 C61.3008,17.2375 60.8148,17.7225 60.2088,18.0865 C59.6618,18.3905 58.9338,18.6335 58.2058,18.6935 Z M54.5028,17.6015 C54.6248,17.7225 54.8068,17.7835 54.9888,17.8445 C55.2318,17.9045 55.4748,17.9045 55.8388,17.9655 C56.2028,17.9655 56.5668,17.9045 56.9308,17.8445 C57.2338,17.7225 57.5378,17.5405 57.8418,17.2975 C58.1448,16.9945 58.3268,16.6305 58.5088,16.0835 C58.6908,15.5375 58.7518,14.8705 58.7518,13.9595 C58.7518,12.6245 58.5088,11.6535 58.0238,11.0465 C57.5378,10.4395 56.6888,10.1365 55.5348,10.1365 L54.2608,10.1365 L54.2608,16.4485 C54.2608,16.7515 54.3208,16.9945 54.3208,17.1765 C54.3208,17.3585 54.3818,17.4795 54.5028,17.6015 Z M36.538,24.5209 L36.538,23.0639 L146.576,23.0639 L146.576,24.5209 L36.538,24.5209 Z M137.7753,13.1708 C137.4713,12.7458 137.1693,12.3208 136.8653,11.8958 C137.0463,11.5928 137.2903,11.2888 137.5933,10.8638 C137.8973,10.4998 138.2003,10.0148 138.5643,9.5288 C138.9283,9.0438 139.2323,8.5578 139.5963,8.0118 C139.9003,7.4648 140.2633,6.9198 140.5673,6.4338 C140.9313,5.9478 141.1743,5.4628 141.4173,5.0378 C141.6603,4.6128 141.8413,4.2488 141.9633,3.9448 L145.4833,3.9448 C145.0583,4.2488 144.6333,4.6128 144.0873,5.0988 C143.5423,5.5838 143.0553,6.1298 142.5093,6.7368 C141.9633,7.2828 141.4773,7.8898 140.9923,8.4968 C140.5063,9.1038 140.0823,9.5898 139.7173,10.0748 L139.4743,10.3788 C139.7783,10.8638 140.1423,11.4108 140.4463,11.8358 C140.7503,12.2598 141.1143,12.7458 141.4773,13.1708 C141.8413,13.5958 142.2063,14.0208 142.6303,14.5058 C142.9953,14.9308 143.4203,15.4168 143.9053,15.9628 C144.2093,16.2658 144.6333,16.7518 145.1193,17.2978 C145.6663,17.8438 146.1513,18.3908 146.6973,18.9368 L141.5993,18.8758 C141.4173,18.5118 141.2353,18.0868 140.9923,17.7228 C140.7503,17.2978 140.5063,16.9338 140.2033,16.5088 C139.9003,16.1448 139.6573,15.7808 139.4143,15.4168 C139.1713,15.0518 138.8683,14.6878 138.6253,14.3238 C138.3223,13.9598 138.0793,13.5958 137.7753,13.1708 Z M137.3505,18.3295 L137.3505,18.7545 L132.4345,18.7545 L132.4345,18.2685 C132.4955,18.2685 132.5555,18.2685 132.7385,18.2085 C132.9195,18.2085 133.0405,18.0865 133.1025,18.0265 C133.2235,17.9655 133.2845,17.8445 133.2845,17.6625 C133.3445,17.5405 133.3445,17.2975 133.3445,17.0555 L133.3445,5.5235 C133.3445,5.2805 133.2845,5.0985 133.2845,4.9165 C133.2235,4.7345 133.1635,4.6125 133.1025,4.5525 C133.0405,4.4915 132.9195,4.4305 132.7385,4.3705 C132.5555,4.3705 132.4955,4.3095 132.4345,4.3095 L132.4345,3.8235 L133.2845,3.8235 L137.3505,3.8235 L137.3505,4.3705 C137.2895,4.3705 137.2295,4.3705 137.0465,4.4305 C136.8655,4.4915 136.7445,4.5525 136.6835,4.6125 C136.5615,4.6735 136.5005,4.7945 136.5005,4.9765 C136.4405,5.0985 136.4405,5.3415 136.4405,5.5835 L136.4405,17.1155 C136.4405,17.3585 136.5005,17.5405 136.5005,17.7225 C136.5615,17.9045 136.6215,18.0265 136.6835,18.0865 C136.7445,18.1475 136.8655,18.2085 137.0465,18.2685 C137.2295,18.2685 137.2895,18.3295 137.3505,18.3295 Z M104.6971,16.9944 C104.5151,17.8444 104.3931,18.4514 104.3331,18.8754 L101.6011,18.8754 C101.7231,18.6334 101.8451,18.3904 102.0261,18.0864 C102.2091,17.7834 102.3901,17.3584 102.6341,16.8734 C102.8151,16.3874 103.1191,15.7194 103.4231,14.9914 C103.7261,14.2634 104.1511,13.2914 104.5761,12.1994 L107.0041,6.2514 C107.1251,6.0084 107.1851,5.6444 107.1851,5.2804 L107.1851,4.9774 C107.1251,4.7944 107.0641,4.6734 107.0041,4.6124 C106.9431,4.5524 106.8211,4.4914 106.6391,4.4304 C106.4571,4.4304 106.3961,4.3704 106.3361,4.3704 L106.3361,3.8844 L110.6451,3.8844 C110.7061,4.0664 110.7061,4.3094 110.7661,4.6124 C110.8271,4.9164 110.8871,5.2804 111.0701,5.7054 L114.5301,15.5374 C114.8331,16.4484 115.1361,17.1764 115.3801,17.6624 C115.6221,18.1474 115.8041,18.5724 115.9861,18.8754 L112.1631,18.8754 C112.1631,18.5724 112.0411,18.1474 111.8591,17.5404 C111.7381,16.9334 111.4951,16.2054 111.1911,15.3554 L110.5241,13.4134 L105.7291,13.4134 C105.2431,14.9304 104.8801,16.1444 104.6971,16.9944 Z M108.1571,6.3124 L106.0321,12.3814 L110.1601,12.3814 L108.1571,6.3124 Z M121.7518,18.3295 L121.7518,18.8155 L116.8358,18.8155 L116.8358,18.3295 C116.8968,18.3295 116.9578,18.3295 117.1398,18.2685 C117.3208,18.2685 117.4428,18.1475 117.5038,18.0865 C117.6248,18.0265 117.6858,17.9045 117.6858,17.7225 C117.7468,17.5405 117.7468,17.3585 117.7468,17.1155 L117.7468,16.3265 L117.7468,16.2665 L117.7468,5.8875 L117.7468,5.5235 C117.7468,5.2805 117.6858,5.0985 117.6858,4.9165 C117.6248,4.7345 117.5648,4.6125 117.5038,4.5525 C117.4428,4.4915 117.3208,4.4305 117.1398,4.3705 C116.9578,4.3705 116.8968,4.3095 116.8358,4.3095 L116.8358,3.8235 L117.6858,3.8235 L121.7518,3.8235 L121.7518,4.3095 C121.6908,4.3095 121.6308,4.3095 121.4488,4.3705 C121.2668,4.4305 121.1458,4.4915 121.0848,4.5525 C120.9628,4.6125 120.9018,4.7345 120.9018,4.9165 C120.8418,5.0375 120.8418,5.2805 120.8418,5.5235 L120.8418,10.3175 L126.6688,10.3175 L126.6688,5.5235 C126.6688,5.2805 126.6068,5.0985 126.6068,4.9165 C126.5468,4.7345 126.4858,4.6125 126.4258,4.5525 C126.3648,4.4915 126.2438,4.4305 126.0618,4.3705 C125.8798,4.3705 125.8188,4.3095 125.7578,4.3095 L125.7578,3.8235 L126.4858,3.8235 L130.5528,3.8235 L130.5528,4.2485 C130.4918,4.2485 130.4318,4.2485 130.2498,4.3095 C130.0668,4.3705 129.9458,4.4305 129.8858,4.4915 C129.7638,4.5525 129.7028,4.6735 129.7028,4.8555 C129.6428,4.9765 129.6428,5.2195 129.6428,5.4625 L129.6428,8.4365 L129.6428,8.4965 L129.6428,13.9595 L129.6428,14.0805 L129.6428,17.0555 C129.6428,17.2975 129.7028,17.4795 129.7028,17.6625 C129.7638,17.8445 129.8238,17.9655 129.8858,18.0265 C129.9458,18.0865 130.0668,18.1475 130.2498,18.2085 C130.4318,18.2085 130.4918,18.2685 130.5528,18.2685 L130.5528,18.7545 L125.6368,18.7545 L125.6368,18.2685 C125.6968,18.2685 125.7578,18.2685 125.9398,18.2085 C126.1218,18.2085 126.2438,18.0865 126.3048,18.0265 C126.4258,17.9655 126.4858,17.8445 126.4858,17.6625 C126.5468,17.5405 126.5468,17.2975 126.5468,17.0555 L126.5468,11.3505 L120.7208,11.3505 L120.7208,17.1155 C120.7208,17.3585 120.7808,17.5405 120.7808,17.7225 C120.8418,17.9045 120.9018,18.0265 120.9628,18.0865 C121.0238,18.1475 121.1458,18.2085 121.3268,18.2685 C121.5098,18.2685 121.5698,18.3295 121.6308,18.3295 L121.7518,18.3295 Z M26.5233,5.4018 L8.8613,15.5988 L0.3033,10.6818 C0.3643,10.1358 0.4853,9.6508 0.6683,9.1038 L8.8003,13.7778 L25.6133,4.1278 C25.9163,4.5518 26.2193,4.9768 26.5233,5.4018 Z M8.8007,17.4194 L27.3127,6.7974 C28.3437,8.7404 28.8907,10.9854 28.8907,13.3524 C28.8907,21.3644 22.3967,27.7974 14.4457,27.7974 C6.4337,27.7974 -0.0003,21.3034 -0.0003,13.3524 C-0.0003,13.0494 -0.0003,12.6854 0.0607,12.3814 L8.8007,17.4194 Z M24.4599,2.9135 L8.7399,11.9565 L1.1529,7.5865 C1.3969,7.1005 1.6389,6.6155 1.8819,6.1905 L8.8009,10.1355 L23.1859,1.8205 C23.6099,2.1845 24.0349,2.4885 24.4599,2.9135 Z M21.7284,0.8496 L8.7404,8.3146 L2.7314,4.8556 C3.0954,4.4306 3.3994,4.0056 3.7624,3.6416 L8.8004,6.4946 L20.0294,-0.0004 C20.6354,0.2426 21.1824,0.5466 21.7284,0.8496 Z"/>
</svg>
