<svg xmlns="http://www.w3.org/2000/svg" width="106" height="29" viewBox="0 0 106 29">
  <g fill="none" fill-rule="evenodd">
    <path fill="#00438A" d="M37.6603,20.7719 C38.2223,20.7719 38.8033,20.8289 39.2413,21.2509 C39.6073,21.5959 39.8443,22.2469 39.8443,22.9109 C39.8443,23.4659 39.6793,24.0199 39.3913,24.4279 C38.9143,25.0819 38.3953,25.2119 37.6603,25.2119 L35.3183,25.2119 L35.3183,20.7719 L37.6603,20.7719 Z M37.1273,13.4179 C37.4523,13.4179 38.0563,13.4179 38.5583,13.6349 C39.1023,13.8669 39.4433,14.4799 39.4433,15.2349 C39.4433,15.7489 39.2683,16.2569 38.9893,16.5589 C38.5553,17.0399 38.0473,17.0799 37.4743,17.0799 L35.2663,17.0799 L35.2663,13.4179 L37.1273,13.4179 Z M31.2773,9.6289 L37.5563,9.6289 C39.5503,9.6289 41.0493,9.8659 42.3543,11.0419 C43.4263,12.0249 43.9473,13.1869 43.9473,14.5909 C43.9473,15.9489 43.4783,17.1039 42.5933,17.9309 C42.2633,18.2269 41.8893,18.4559 41.4973,18.6489 C42.0063,18.8549 42.4943,19.1139 42.9323,19.4849 C44.1353,20.4969 44.6693,21.6939 44.6693,23.3669 C44.6693,26.7139 42.3393,28.8769 38.7293,28.8769 L30.9753,28.8769 L30.9753,9.6289 L31.2773,9.6289 Z M60.174,9.6293 L60.608,9.6293 L59.355,13.3323 C59.355,13.3323 55.153,13.3313 54.625,13.3323 L54.625,28.9163 L50.28,28.9163 L50.28,13.3323 C49.743,13.3313 44.879,13.3323 44.879,13.3323 L44.879,9.6293 L60.174,9.6293 Z M74.264,9.5925 L74.565,9.5925 L73.289,13.2985 L65.999,13.2985 L65.999,16.8705 L68.711,16.8705 C71.201,16.8705 72.657,17.6235 73.441,18.2565 C74.174,18.8525 75.405,20.2375 75.405,22.8165 C75.405,25.5635 74.135,27.0085 73.071,27.7365 C72.034,28.4535 70.503,28.8645 68.871,28.8645 L61.667,28.8645 L61.667,9.5925 L74.264,9.5925 Z M68.173,20.5385 L65.999,20.5385 L65.999,25.1405 L68.306,25.1405 C69.121,25.1405 69.704,24.9045 70.087,24.4215 C70.289,24.1685 70.558,23.7265 70.558,22.8165 C70.558,21.9485 70.283,21.3355 69.718,20.9395 C69.361,20.6885 68.782,20.5385 68.173,20.5385 Z M17.8624,9.6298 C23.3384,14.1408 23.6344,19.2628 23.6344,19.2628 L6.7604,19.2628 C3.5064,16.9418 1.0914,13.5448 0.0004,9.6298 C1.1004,5.6698 3.5384,2.2998 6.7694,-0.0002 L23.6794,-0.0002 C23.6794,-0.0002 23.3744,1.1188 22.9484,2.1408 L7.3804,2.1408 C6.9514,2.4758 6.5404,2.8318 6.1484,3.2108 L22.4484,3.2108 C22.4484,3.2108 21.5564,4.8128 21.1124,5.3498 L4.2934,5.3498 C4.0444,5.6958 3.8074,6.0538 3.5894,6.4198 L20.2414,6.4198 C20.2414,6.4198 19.0514,7.7288 17.8554,8.5608 L2.5134,8.5608 C2.3714,8.9118 2.2394,9.2668 2.1234,9.6298 C3.0514,12.5948 4.8204,15.1988 7.1844,17.1248 L20.8784,17.1248 C19.6874,13.7178 17.2014,11.7708 17.2014,11.7708 L4.1744,11.7708 C3.6624,11.0458 3.2214,9.6298 3.2214,9.6298 L17.8624,9.6298 Z"/>
    <path fill="#FF2D34" d="M78.3927,10.4193 C79.8957,9.6573 81.9667,9.1643 83.6707,9.1643 C85.6277,9.1643 87.2467,9.7623 88.3557,10.8953 C89.3047,11.8623 89.8057,13.1653 89.8057,14.6663 L89.8057,14.8003 C89.7617,17.0543 88.3617,19.2933 86.1517,20.6463 C86.1517,20.6463 84.2747,21.8053 84.2717,21.8063 C82.7647,22.7643 81.9917,23.6943 81.6857,24.9183 L81.6417,25.0973 L89.1267,25.0973 C89.1257,25.3573 89.1267,28.5573 89.1267,28.8153 C88.8467,28.8153 77.3217,28.8183 77.0427,28.8183 C77.0417,28.5823 77.0377,27.4943 77.0377,27.4943 C77.0377,22.9113 79.2887,20.6413 82.9227,18.4613 C84.4037,17.5603 85.6277,16.6693 85.6277,14.9003 C85.6277,14.3673 85.4107,13.8683 85.0187,13.4963 C84.5377,13.0393 83.8487,12.8093 83.0827,12.8503 C81.2237,12.9463 79.1667,14.1253 78.7837,14.3553 C78.7837,14.3553 78.4687,14.5073 78.2537,14.6123 C78.2537,14.2063 78.2547,10.6513 78.2547,10.4903 C78.3187,10.4583 78.3927,10.4193 78.3927,10.4193 Z M97.8654,9.5556 L101.9614,9.5556 C100.9344,11.1626 94.7704,20.8576 94.4644,21.3796 L98.7104,21.3796 L98.7104,17.5796 L102.3074,17.5796 L102.3074,21.3796 L105.9304,21.3796 L104.6774,25.0926 L102.3074,25.0926 L102.3074,28.8556 L98.7104,28.8556 L98.7104,25.0926 L90.1144,25.0926 L90.1144,21.7036 C90.1604,21.6326 97.7814,9.6856 97.8654,9.5556 Z"/>
  </g>
</svg>
