<svg xmlns="http://www.w3.org/2000/svg" width="142" height="31" viewBox="0 0 142 31">
  <g fill="#1E5378" fill-rule="evenodd">
    <path d="M0,15.4708 C0,24.0018 6.712,30.9428 14.963,30.9428 C23.213,30.9428 29.926,24.0018 29.926,15.4708 C29.926,6.9408 23.213,-0.0002 14.963,-0.0002 C6.712,-0.0002 0,6.9408 0,15.4708 M0.517,15.4708 C0.517,7.2358 6.997,0.5328 14.963,0.5328 C22.93,0.5328 29.409,7.2358 29.409,15.4708 C29.409,23.7068 22.93,30.4088 14.963,30.4088 C6.997,30.4088 0.517,23.7068 0.517,15.4708"/>
    <path d="M4.6626 11.2301C8.4876 8.6361 12.7146 7.1271 19.8816 8.4071 20.2786 8.1691 20.4966 7.9451 20.5986 7.4611 18.8086 6.7941 16.8686 6.5581 14.3606 6.6031 12.0996 6.6641 8.0406 7.5331 5.8746 8.8561L6.5326 8.0061C8.0516 7.0881 12.0026 5.8641 14.9636 5.8061 17.0536 5.7651 18.1386 5.8841 20.6176 6.5751 20.4036 6.1361 19.8846 5.9171 19.1356 5.5691 16.7316 4.4531 12.2426 4.3491 8.5636 6.0211 9.0296 5.7081 9.4856 5.4161 10.0806 5.1331 11.2926 4.5611 13.2766 4.0051 15.7576 4.0471 17.7416 4.0821 20.0946 4.7951 21.5376 6.2761 21.7776 6.5681 21.9156 6.8791 21.9756 7.1261 23.1196 7.7241 23.7806 8.2821 24.1556 8.9451 24.3056 9.2801 24.3716 9.6531 24.3036 10.0671 24.7776 10.3631 25.0026 10.6071 25.2356 10.9291 25.4086 11.2031 25.5326 11.5071 25.5656 11.7911 25.6096 12.1601 25.6496 12.5761 25.2756 13.0601 25.6716 13.2571 25.9736 13.8151 26.0236 14.0651 26.2026 14.9541 25.6496 15.8191 24.9176 16.4951 24.0796 17.2571 22.2276 18.1591 20.7196 18.5571 17.7216 19.3371 15.0756 19.6691 12.9706 20.0691 13.9086 20.3001 15.1936 20.6161 17.2926 20.6161 21.7606 20.6161 25.7166 18.4291 25.7166 18.4291 25.7166 18.4291 25.6246 18.7181 25.5376 18.9641 22.7016 20.7431 18.1776 21.4931 16.2536 21.4021 14.2886 21.3091 12.6456 21.0091 11.0326 20.4971 10.5366 20.6331 10.0506 20.7941 9.5816 21.0091 12.0376 22.1631 13.8896 22.4221 15.9906 22.5811 18.1306 22.7421 21.6746 22.2091 24.6666 21.0891 24.5316 21.2291 24.4606 21.4541 24.3216 21.5861 22.7906 22.4131 19.5486 23.2511 17.9236 23.3211 16.3046 23.3901 14.3286 23.3281 12.6116 22.9891 11.1286 22.6951 9.9276 22.2091 8.6656 21.6391 8.4346 21.8101 8.3206 22.0431 8.2806 22.2911 13.2046 24.9511 17.8196 25.0091 23.0656 23.3241L22.5856 23.8001C16.8066 26.2211 12.2886 25.2841 8.7926 23.5401 8.6836 23.4861 8.5396 23.4291 8.4406 23.3621 8.7606 23.9471 11.4346 25.9621 14.4186 26.2141 16.4756 26.3891 18.9886 26.0251 20.4776 25.4071L19.6066 25.8791C18.8836 26.2471 16.9736 27.0781 14.2966 26.8961 10.7326 26.6461 8.7286 25.0171 7.8296 24.1641 7.4116 23.7671 7.2146 23.3021 7.0876 22.7361 6.2816 22.2991 5.7756 21.8491 5.3576 21.1741 5.1106 20.7751 5.1586 20.3291 5.2206 19.9551 5.2426 19.8371 5.2706 19.7281 5.3146 19.6181 4.9276 19.3301 4.5366 19.0201 4.3696 18.7081 4.0176 18.0511 4.2336 17.4851 4.4776 17.0491 4.2656 16.8011 4.0716 16.5541 3.9816 16.2981 3.8896 15.9951 3.8716 15.7111 3.8976 15.3921 3.9646 14.8381 4.2516 14.3321 4.6166 13.8961 5.3966 12.9671 6.6176 12.2461 8.7176 11.5271 10.7686 10.8241 11.5956 10.7171 13.1436 10.3471 14.9506 9.9151 17.1096 9.7761 18.9216 9.1231 13.8796 8.2061 8.6426 9.0381 4.3716 12.0801L4.6626 11.2301zM21.8396 8.0151C21.7736 8.2721 21.5066 8.5691 21.3226 8.7711 21.8726 8.9211 22.4256 9.1281 22.9576 9.3351 22.8926 8.8321 22.3226 8.3431 21.8396 8.0151L21.8396 8.0151zM6.3036 18.4361C5.9796 18.2451 5.7566 18.1121 5.4836 17.9181 5.3346 18.2501 5.6096 18.6131 5.9066 18.7881 6.0306 18.6601 6.1736 18.5541 6.3036 18.4361L6.3036 18.4361zM23.3016 11.6201C23.6626 11.8051 23.9886 11.9391 24.3066 12.1711 24.5356 11.7211 24.3956 11.4281 23.9206 11.0111 23.7356 11.2361 23.5246 11.4371 23.3016 11.6201L23.3016 11.6201zM22.2236 12.3021C21.4856 12.6541 20.4306 13.0191 18.9166 13.4121 17.6786 13.7331 14.6546 14.1831 11.4086 14.9121 10.3756 15.1431 7.5936 15.8231 6.2256 17.0251 6.6066 17.3411 6.8426 17.4211 7.2696 17.6671 7.8386 17.2921 8.6016 16.9381 9.7476 16.6201 11.7416 16.0691 13.2266 15.8331 15.0196 15.5421 16.8006 15.2501 20.1436 14.5271 21.9986 13.8391 22.6006 13.6141 23.1636 13.3271 23.5826 12.9911 23.4536 12.8411 22.2616 12.2461 22.2236 12.3021L22.2236 12.3021zM8.1916 20.3201C8.4646 20.1521 8.7926 19.9831 9.1736 19.8291 8.6536 19.6081 8.1236 19.3681 7.5816 19.1061 7.3366 19.2621 7.1186 19.4311 6.9456 19.6041 7.3576 19.8501 7.7686 20.0931 8.1916 20.3201L8.1916 20.3201zM6.4766 20.4971C6.4706 20.8421 6.6716 21.1501 7.1186 21.5241 7.1746 21.3381 7.2536 21.2011 7.3866 21.0221 7.0766 20.8601 6.7736 20.6811 6.4766 20.4971L6.4766 20.4971zM8.9956 14.1301C12.6436 13.0231 16.4786 12.6841 20.3566 11.6111 18.8416 11.1881 18.0116 11.0111 16.4076 11.2061 14.0796 11.4881 11.5206 12.0131 9.3296 12.6851 8.4726 12.9481 3.9476 14.2721 5.2536 16.1261 5.2536 16.1491 6.0306 15.0261 8.9956 14.1301L8.9956 14.1301zM22.6836 10.2661C22.0916 9.9881 21.3446 9.7181 20.5576 9.5001 20.2056 9.7921 19.7916 10.0471 19.2056 10.2821 20.1886 10.4621 20.9306 10.7461 21.7576 10.9941 21.9076 11.0711 22.5776 10.4191 22.6836 10.2661L22.6836 10.2661zM24.4826 13.8971C24.3706 13.9951 24.2486 14.0931 24.1146 14.1991 23.2876 14.8551 21.9836 15.3811 20.1716 15.8821 16.4146 16.9241 13.6886 17.0801 10.5846 17.8651 9.9836 18.0171 9.3516 18.2271 8.7656 18.4761 9.3516 18.7741 9.9726 19.0561 10.6136 19.3061 11.8696 18.9371 12.4766 18.7661 14.3026 18.4461 14.9976 18.3251 17.1356 17.9371 18.6886 17.5971 21.4776 16.9821 25.5706 15.6471 24.4826 13.8971L24.4826 13.8971zM44.25 22.2267L47.336 22.2267 47.707 19.8857 49.831 19.8857 50.202 22.2267 53.287 22.2267 50.681 8.6857 46.856 8.6857 44.25 22.2267zM48.769 12.7757L49.344 16.9077 48.194 16.9077 48.769 12.7757zM56.1953 13.9337C56.6833 13.9337 57.5923 13.6007 57.5923 12.6047 57.5923 11.4267 56.5463 11.3497 56.2543 11.3497 55.9033 11.3497 55.2433 11.4047 54.5793 11.7257L54.5533 8.7997C55.5873 8.5247 56.3293 8.4457 57.2083 8.4477 59.6893 8.4497 60.8113 10.2517 60.8113 12.0007 60.8113 13.7127 59.8463 14.7547 58.9293 15.1527L58.9293 15.2857C59.8083 15.5717 61.0083 16.4607 61.0083 18.5337 61.0083 21.0847 59.2823 22.4967 57.0783 22.4967 55.8943 22.4957 55.1253 22.3187 54.2013 21.7937L54.2553 18.9817C55.1093 19.3647 55.6873 19.3917 56.2723 19.3917 57.2473 19.3917 57.6383 18.6547 57.6383 18.1027 57.6383 17.3417 57.1723 16.8297 56.1353 16.8297L54.8953 16.8297 54.8953 13.9337 56.1953 13.9337zM62.4316 8.6856L70.7206 8.6856 70.7206 22.2266 67.6846 22.2266 67.6846 11.9446 65.4696 11.9446 65.4696 22.2296 62.4316 22.2266 62.4316 8.6856zM72.459 22.2267L72.459 8.6857 76.52 8.6887C79.396 8.6857 80.455 11.4387 80.455 13.1927 80.455 14.9687 79.528 17.7647 76.52 17.7627L75.499 17.7627 75.499 22.2297 72.459 22.2267zM75.499 11.6677L75.499 14.7837 76.222 14.7837C76.615 14.7837 77.343 14.6837 77.343 13.2157 77.343 12.0937 76.912 11.6677 76.222 11.6677L75.499 11.6677zM86.083 22.3907C82.481 22.3907 81.266 18.9167 81.266 15.4397 81.266 11.9657 82.481 8.4887 86.083 8.4887 89.687 8.4887 90.902 11.9657 90.902 15.4397 90.902 18.9167 89.687 22.3907 86.083 22.3907zM86.083 19.1197C87.154 19.1197 87.71 17.8257 87.71 15.4397 87.71 13.0527 87.154 11.7597 86.083 11.7597 85.014 11.7597 84.46 13.0527 84.46 15.4397 84.46 17.8257 85.014 19.1197 86.083 19.1197zM104.1367 22.2267L104.1367 8.6857 111.1337 8.6857 111.1337 11.9347 107.1117 11.9347 107.1117 13.7277 107.6527 13.7277C109.2967 13.7277 111.8497 14.3307 111.8447 17.7907 111.8397 21.8887 108.5507 22.2267 107.7667 22.2267L104.1367 22.2267zM107.1117 19.5187L107.5557 19.5187C107.9107 19.5187 108.8707 19.2807 108.8707 17.8477 108.8707 16.4557 107.9107 16.4367 107.5557 16.4367L107.1117 16.4367 107.1117 19.5187zM122.7822 8.6856L125.7562 8.6856 125.7562 13.5586 127.8822 13.5586 127.8822 8.6856 130.8552 8.6856 130.8552 22.2266 127.8822 22.2266 127.8822 16.8096 125.7562 16.8096 125.7562 22.2266 122.7822 22.2266 122.7822 8.6856zM38.3667 8.6856L44.5987 8.6856 44.6007 12.0636 41.4637 12.0636 41.4637 22.2296 38.3667 22.2266 38.3667 8.6856zM92.3604 8.6886L94.9394 8.6886 97.2204 11.8776 99.5124 8.6886 102.0874 8.6886 102.0874 22.2286 99.0514 22.2286 99.0514 13.9676 97.2204 16.3396 95.3994 13.9676 95.3994 22.2316 92.3604 22.2286 92.3604 8.6886zM112.4424 22.2511L115.0464 8.7091 118.8714 8.7091 121.4764 22.2511 118.3924 22.2511 118.0224 19.9081 115.8974 19.9081 115.5254 22.2511 112.4424 22.2511zM116.9614 12.8001L116.3834 16.9291 117.5344 16.9291 116.9614 12.8001zM132.8525 8.6856L135.8265 8.6856 135.8225 13.5576 136.4685 13.5576 138.1725 8.6856 141.4085 8.6856 139.0855 15.1116 141.7325 22.2266 138.2345 22.2266 136.5285 16.7846 135.8225 16.7846 135.8265 22.2266 132.8525 22.2266 132.8525 8.6856z"/>
  </g>
</svg>
