<svg xmlns="http://www.w3.org/2000/svg" width="145" height="26" viewBox="0 0 145 26">
  <path fill="#003D7F" fill-rule="evenodd" d="M0.0004,3.9898 L110.1234,3.9898 L99.8644,25.9558 L0.0004,25.9558 L0.0004,3.9898 Z M133.6536,3.9993 L131.4526,3.9993 L121.1936,25.9653 L113.9266,25.9653 L125.1196,1.9993 L134.5876,1.9993 L133.6536,3.9993 Z M119.6086,5.9988 L111.2166,23.9658 L113.3386,23.9658 L112.4056,25.9648 L103.0166,25.9648 L113.2766,3.9988 L122.7256,3.9988 L121.7926,5.9988 L119.6086,5.9988 Z M143.3899,1.9993 L140.0939,1.9993 L139.1609,3.9993 L142.4509,3.9993 L132.1909,25.9653 L124.9249,25.9653 L137.0579,-0.0007 L144.3239,-0.0007 L143.3899,1.9993 Z M95.7434,20.9178 C96.9874,20.0948 97.3354,18.7418 97.3354,17.8078 C97.3354,16.6378 96.8414,15.6318 96.1274,14.9908 C95.1214,14.0948 93.8594,13.9668 92.9084,13.9668 L91.6644,13.9668 L91.6644,10.6378 L96.1094,10.6378 L96.1094,8.8088 L89.6884,8.8088 L89.6884,21.6128 L92.9444,21.6128 C93.7674,21.6128 94.7924,21.5588 95.7434,20.9178 Z M87.6034,10.6378 L87.6034,8.8088 L81.2014,8.8088 L81.2014,21.6128 L83.1774,21.6128 L83.1774,10.6378 L87.6034,10.6378 Z M78.5314,11.8088 L78.5314,9.5028 C77.7454,8.9738 76.7574,8.5518 75.1104,8.5518 C73.3544,8.5518 71.8174,8.9738 70.4824,10.2538 C68.9464,11.7168 68.4334,13.6018 68.4334,15.2658 C68.4334,17.3508 69.2384,18.9058 70.4824,20.0948 C72.1294,21.6498 73.9214,21.8698 75.0184,21.8698 C76.9394,21.8698 78.1294,21.1558 78.5314,20.8998 L78.5314,18.5588 C77.0864,19.9308 75.6784,20.0408 75.0734,20.0408 C72.3664,20.0408 70.4824,17.9908 70.4824,15.2658 C70.4824,12.4488 72.2934,10.3818 75.0734,10.3818 C75.7684,10.3818 77.1784,10.4918 78.5314,11.8088 Z M59.7824,21.6128 L62.3804,21.6128 L56.5634,14.6068 L62.3444,8.8088 L59.7824,8.8088 L54.8444,13.9118 L54.8444,8.8088 L52.8684,8.8088 L52.8684,21.6128 L54.8444,21.6128 L54.8444,15.4668 L59.7824,21.6128 Z M51.0404,21.6128 L51.0404,8.8088 L49.0634,8.8088 L49.0634,13.8208 L43.6124,13.8208 L43.6124,8.8088 L41.6384,8.8088 L41.6384,21.6128 L43.6124,21.6128 L43.6124,15.6498 L49.0634,15.6498 L49.0634,21.6128 L51.0404,21.6128 Z M38.3454,21.6128 L40.4674,21.6128 L34.3934,8.0768 L28.0284,21.6128 L30.1504,21.6128 L31.5584,18.5028 L36.9914,18.5028 L38.3454,21.6128 Z M25.8514,20.9178 C27.0964,20.0948 27.4434,18.7418 27.4434,17.8078 C27.4434,16.6378 26.9504,15.6318 26.2364,14.9908 C25.2294,14.0948 23.9684,13.9668 23.0164,13.9668 L21.7724,13.9668 L21.7724,10.6378 L26.2184,10.6378 L26.2184,8.8088 L19.7974,8.8088 L19.7974,21.6128 L23.0544,21.6128 C23.8764,21.6128 24.9014,21.5588 25.8514,20.9178 Z M92.8713,15.7962 C95.1583,15.7962 95.3593,17.2412 95.3593,17.8262 C95.3593,19.7842 93.3293,19.7842 92.8353,19.7842 L91.6643,19.7842 L91.6643,15.7962 L92.8713,15.7962 Z M22.9797,15.7962 C25.2667,15.7962 25.4677,17.2412 25.4677,17.8262 C25.4677,19.7842 23.4377,19.7842 22.9437,19.7842 L21.7727,19.7842 L21.7727,15.7962 L22.9797,15.7962 Z M32.345,16.6741 L34.322,12.3571 L36.224,16.6741 L32.345,16.6741 Z"/>
</svg>
