<svg xmlns="http://www.w3.org/2000/svg" width="37" height="39" viewBox="0 0 37 39">
  <path fill="#0045C0" fill-rule="evenodd" d="M27.1885,27.8909 C23.1455,27.8909 19.8565,24.6009 19.8565,20.5579 C19.8565,16.5149 23.1455,13.2249 27.1885,13.2249 C31.2315,13.2249 34.5215,16.5149 34.5215,20.5579 C34.5215,24.6009 31.2315,27.8909 27.1885,27.8909 L27.1885,27.8909 Z M26.1885,35.7949 C26.1885,36.0319 25.9965,36.2229 25.7595,36.2229 L2.4285,36.2229 C2.1925,36.2229 2.0005,36.0319 2.0005,35.7949 L2.0005,12.0359 L9.0945,12.0359 C10.4335,12.0359 11.5235,10.9459 11.5235,9.6069 L11.5235,2.5119 L25.7645,2.5119 C25.9985,2.5119 26.1885,2.7039 26.1885,2.9389 L26.1885,11.2809 C21.5115,11.7819 17.8565,15.7489 17.8565,20.5579 C17.8565,25.3669 21.5115,29.3339 26.1885,29.8349 L26.1885,35.7949 Z M9.5235,2.7359 L9.5235,9.6069 C9.5235,9.8429 9.3315,10.0359 9.0945,10.0359 L2.2235,10.0359 L9.5235,2.7359 Z M28.1885,11.2809 C32.8665,11.7819 36.5215,15.7489 36.5215,20.5579 C36.5215,25.3669 32.8665,29.3339 28.1885,29.8349 L28.1885,35.7949 C28.1885,37.1339 27.0985,38.2229 25.7595,38.2229 L2.4285,38.2229 C1.0895,38.2229 0.0005,37.1339 0.0005,35.7949 L0.0005,9.4309 L8.9185,0.5119 L25.7645,0.5119 C27.1015,0.5119 28.1885,1.6009 28.1885,2.9389 L28.1885,11.2809 Z M28.1885,15.7961 L26.1885,15.7961 L26.1885,19.5581 L22.4265,19.5581 L22.4265,21.5581 L26.1885,21.5581 L26.1885,25.3191 L28.1885,25.3191 L28.1885,21.5581 L31.9505,21.5581 L31.9505,19.5581 L28.1885,19.5581 L28.1885,15.7961 Z"/>
</svg>
