<svg xmlns="http://www.w3.org/2000/svg" width="47" height="53" viewBox="0 0 47 53">
  <g fill="none" fill-rule="evenodd" transform="translate(1 1)">
    <path stroke="#FF1900" stroke-width="2" d="M5.2225,39.5596 L5.2225,47.9976 C5.2225,49.6546 6.5665,50.9976 8.2225,50.9976 L41.2215,50.9976 C42.8775,50.9976 44.2215,49.6546 44.2215,47.9976 L44.2215,13.9996 L33.2215,13.9996 C31.5645,13.9996 30.2215,12.6566 30.2215,10.9996 L30.2215,-0.0004 C30.2215,-0.0004 20.7455,0.0006 8.2135,0.0006 C6.5595,0.0006 5.2225,1.3416 5.2225,2.9966 L5.2225,21.2406" stroke-linejoin="round"/>
    <path stroke="#FF1900" stroke-width="2" d="M30.2216 0L44.2216 13.999M29.5165 39.5596L2.9995 39.5596C1.3425 39.5596-.0005 38.2166-.0005 36.5596L-.0005 24.2406C-.0005 22.5836 1.3425 21.2406 2.9995 21.2406L29.5165 21.2406C31.1735 21.2406 32.5165 22.5836 32.5165 24.2406L32.5165 36.5596C32.5165 38.2166 31.1735 39.5596 29.5165 39.5596z"/>
    <path fill="#FF1900" d="M5.9725,30.1601 L8.2795,30.1601 C8.4555,30.1601 8.6365,30.1351 8.8215,30.0851 C9.0055,30.0341 9.1765,29.9521 9.3315,29.8391 C9.4875,29.7251 9.6135,29.5741 9.7095,29.3851 C9.8065,29.1961 9.8545,28.9591 9.8545,28.6721 C9.8545,28.3791 9.8125,28.1351 9.7285,27.9421 C9.6445,27.7481 9.5315,27.5951 9.3885,27.4821 C9.2455,27.3681 9.0815,27.2911 8.8965,27.2481 C8.7115,27.2071 8.5145,27.1851 8.3045,27.1851 L5.9725,27.1851 L5.9725,30.1601 Z M4.3975,25.9001 L8.3675,25.9001 C9.0055,25.9001 9.5275,25.9921 9.9305,26.1771 C10.3335,26.3621 10.6445,26.5931 10.8635,26.8701 C11.0815,27.1481 11.2315,27.4501 11.3115,27.7781 C11.3905,28.1061 11.4305,28.4081 11.4305,28.6851 C11.4305,28.9631 11.3905,29.2641 11.3115,29.5871 C11.2315,29.9101 11.0815,30.2111 10.8635,30.4881 C10.6445,30.7651 10.3335,30.9941 9.9305,31.1751 C9.5275,31.3561 9.0055,31.4461 8.3675,31.4461 L5.9725,31.4461 L5.9725,34.9001 L4.3975,34.9001 L4.3975,25.9001 Z M12.8048,25.9 L16.5348,25.9 C17.2248,25.9 17.8208,26.017 18.3248,26.253 C18.8298,26.488 19.2418,26.809 19.5618,27.217 C19.8798,27.625 20.1178,28.101 20.2738,28.647 C20.4288,29.194 20.5068,29.778 20.5068,30.4 C20.5068,31.022 20.4288,31.606 20.2738,32.152 C20.1178,32.698 19.8798,33.175 19.5618,33.583 C19.2418,33.99 18.8298,34.312 18.3248,34.547 C17.8208,34.782 17.2248,34.9 16.5348,34.9 L12.8048,34.9 L12.8048,25.9 Z M14.3798,33.614 L15.9308,33.614 C16.5438,33.614 17.0468,33.532 17.4368,33.368 C17.8268,33.205 18.1348,32.978 18.3578,32.688 C18.5788,32.398 18.7308,32.057 18.8108,31.666 C18.8908,31.276 18.9308,30.854 18.9308,30.4 C18.9308,29.946 18.8908,29.524 18.8108,29.133 C18.7308,28.742 18.5788,28.402 18.3578,28.112 C18.1348,27.822 17.8268,27.595 17.4368,27.431 C17.0468,27.267 16.5438,27.185 15.9308,27.185 L14.3798,27.185 L14.3798,33.614 Z M21.9052,25.8999 L28.1202,25.8999 L28.1202,27.2609 L23.4802,27.2609 L23.4802,29.6189 L27.5522,29.6189 L27.5522,30.9039 L23.4802,30.9039 L23.4802,34.8999 L21.9052,34.8999 L21.9052,25.8999 Z"/>
  </g>
</svg>
