<svg xmlns="http://www.w3.org/2000/svg" width="76" height="57" viewBox="0 0 76 57">
  <g fill="none" fill-rule="evenodd">
    <path fill="#000000" d="M52.9404,52.6176 C52.9404,52.9226 52.6934,53.1706 52.3874,53.1706 L52.3874,53.1716 L42.9054,53.1716 C42.5994,53.1716 42.3524,52.9236 42.3524,52.6186 L42.3524,52.6006 L42.3524,48.6876 L42.3554,48.6866 C42.3674,48.4436 42.5344,48.2426 42.7594,48.1806 C42.8054,48.1676 52.9404,46.0146 52.9404,46.0146 L52.9404,52.6176 Z M52.2964,37.0586 C54.4324,37.0586 56.1634,38.7896 56.1634,40.9256 L56.1634,52.5256 C56.1634,54.6616 54.4324,56.3926 52.2964,56.3926 L52.2964,56.3936 L42.9974,56.3936 C40.8614,56.3936 39.1294,54.6626 39.1294,52.5266 L39.1294,48.6596 L39.1314,48.6596 C39.1434,46.8466 40.4054,45.3316 42.0984,44.9286 L42.0964,44.9216 L52.9404,42.5836 L52.9404,40.8336 C52.9404,40.5286 52.6934,40.2816 52.3874,40.2816 L40.2814,40.2816 L40.2814,37.0586 L52.2964,37.0586 Z M58.9258,37.0586 L75.9588,37.0586 L75.9588,40.2816 L69.0538,40.2816 L69.0538,56.3936 L65.8308,56.3936 L65.8308,40.2816 L58.9258,40.2816 L58.9258,37.0586 Z M19.795,56.3937 L19.795,37.0587 L23.018,37.0587 L23.018,56.3937 L19.795,56.3937 Z M36.8281,56.3935 L33.1071,56.3935 L28.3211,48.3375 L24.3981,48.3375 L24.3981,45.1155 L28.3211,45.1155 L33.1071,37.0585 L36.8281,37.0585 L31.1121,46.7265 L36.8281,56.3935 Z M16.3427,37.0586 L16.3427,40.2816 L3.7757,40.2816 L3.7757,40.2826 C3.4697,40.2826 3.2227,40.5296 3.2227,40.8346 L3.2227,52.6186 C3.2227,52.9236 3.4697,53.1716 3.7757,53.1716 L16.3427,53.1716 L16.3427,56.3936 L3.8667,56.3936 C1.7317,56.3936 -0.0003,54.6626 -0.0003,52.5266 L-0.0003,40.9266 C-0.0003,38.7906 1.7317,37.0596 3.8667,37.0596 L3.8667,37.0586 L16.3427,37.0586 Z"/>
    <path fill="#00197C" d="M38.9004,13.2788 L49.0284,7.4328 L49.0274,19.7028 L38.9004,25.5498 L38.9004,13.2788 Z M60.997,13.2788 L60.997,25.5498 L50.87,19.7028 L50.869,7.4328 L60.997,13.2788 Z M14.9619,13.2788 L25.0899,7.4328 L25.0889,19.7028 L14.9619,25.5498 L14.9619,13.2788 Z M37.0586,13.2788 L37.0586,25.5498 L26.9316,19.7028 L26.9306,7.4328 L37.0586,13.2788 Z M37.9791,-0.0003 L48.1091,5.8477 L37.9821,11.6967 L27.8481,5.8477 L37.9791,-0.0003 Z"/>
  </g>
</svg>
