<svg xmlns="http://www.w3.org/2000/svg" width="268" height="113" viewBox="0 0 268 113" xmlns:xlink="http://www.w3.org/1999/xlink">
  <defs>
    <polygon id="a" points="0 27 25.515 27 25.515 .577 0 .577 0 27"/>
    <polygon id="c" points=".194 27 25.71 27 25.71 .577 .194 .577"/>
    <polygon id="e" points=".62 27 26.135 27 26.135 .577 .62 .577 .62 27"/>
    <polygon id="g" points=".424 27 25.939 27 25.939 .577 .424 .577"/>
  </defs>
  <g fill="none" fill-rule="evenodd">
    <path fill="#00C0D4" d="M140.4648,54.2877 C140.7598,44.4427 148.6868,36.5157 158.5318,36.2207 C156.2088,45.0297 149.2738,51.9647 140.4648,54.2877 M131.8188,55.0357 C131.8118,54.7967 131.8078,54.5567 131.8078,54.3167 C131.8078,50.5697 132.5798,47.0037 133.9698,43.7667 C135.3608,47.0037 136.1318,50.5697 136.1318,54.3167 C136.1318,54.5567 136.1278,54.7967 136.1218,55.0357 C135.4118,55.0947 134.6948,55.1267 133.9698,55.1267 C133.2448,55.1267 132.5278,55.0947 131.8188,55.0357 M109.4078,36.2207 C119.2528,36.5157 127.1798,44.4427 127.4748,54.2877 C118.6658,51.9647 111.7308,45.0297 109.4078,36.2207 M129.1778,44.1777 C125.3338,36.8707 117.6688,31.8877 108.8388,31.8877 C108.7798,31.8877 108.7208,31.8907 108.6618,31.8907 C108.6008,31.1767 108.5688,30.4547 108.5688,29.7257 C108.5688,29.0007 108.6008,28.2837 108.6598,27.5737 C108.8988,27.5677 109.1388,27.5637 109.3798,27.5637 C118.5278,27.5637 126.6018,32.1567 131.4268,39.1617 C130.5358,40.7527 129.7808,42.4297 129.1778,44.1777 M133.9698,4.3247 C145.7568,4.3247 155.6678,12.3527 158.5348,23.2407 C148.5388,23.2487 139.6488,27.9767 133.9698,35.3167 C128.2908,27.9767 119.4008,23.2487 109.4058,23.2407 C112.2718,12.3527 122.1828,4.3247 133.9698,4.3247 M159.3708,29.7257 C159.3708,30.4547 159.3388,31.1767 159.2788,31.8907 C159.2198,31.8907 159.1608,31.8877 159.1008,31.8877 C150.2708,31.8877 142.6068,36.8707 138.7618,44.1777 C138.1588,42.4297 137.4038,40.7527 136.5138,39.1617 C141.3378,32.1567 149.4128,27.5637 158.5608,27.5637 C158.8008,27.5637 159.0408,27.5677 159.2798,27.5737 C159.3398,28.2837 159.3708,29.0007 159.3708,29.7257 M133.9698,0.0007 C117.5538,0.0007 104.2448,13.3087 104.2448,29.7257 C104.2448,46.1417 117.5538,59.4507 133.9698,59.4507 C150.3868,59.4507 163.6948,46.1417 163.6948,29.7257 C163.6948,13.3087 150.3868,0.0007 133.9698,0.0007"/>
    <path fill="#00C0D4" d="M133.9699,12.9713 C136.3579,12.9713 138.2939,14.9073 138.2939,17.2953 C138.2939,19.6823 136.3579,21.6183 133.9699,21.6183 C131.5819,21.6183 129.6469,19.6823 129.6469,17.2953 C129.6469,14.9073 131.5819,12.9713 133.9699,12.9713 M133.9699,25.9423 C138.7459,25.9423 142.6169,22.0713 142.6169,17.2953 C142.6169,12.5193 138.7459,8.6473 133.9699,8.6473 C129.1939,8.6473 125.3229,12.5193 125.3229,17.2953 C125.3229,22.0713 129.1939,25.9423 133.9699,25.9423"/>
    <polygon fill="#00C0D4" points="28.665 90.168 37.373 90.168 37.373 112.295 41.728 112.295 41.728 90.168 50.437 90.168 50.437 85.873 28.665 85.873"/>
    <polygon fill="#00C0D4" points="150.197 90.168 158.905 90.168 158.905 112.295 163.26 112.295 163.26 90.168 171.969 90.168 171.969 85.873 150.197 85.873"/>
    <polygon fill="#00C0D4" points="184.77 104.397 184.77 85.873 180.416 85.873 180.416 112.295 184.327 112.295 197.907 93.771 197.907 112.295 202.262 112.295 202.262 85.873 198.351 85.873"/>
    <polygon fill="#00C0D4" points="137.36 97.002 124.025 97.002 124.025 85.873 119.67 85.873 119.67 112.294 124.025 112.294 124.025 101.297 137.36 101.297 137.36 112.294 141.714 112.294 141.714 85.873 137.36 85.873"/>
    <g transform="translate(0 85.295)">
      <mask id="b" fill="white">
        <use xlink:href="#a"/>
      </mask>
      <path fill="#00C0D4" d="M8.7634,16.8154 L12.7574,6.5944 L16.7524,16.8154 L8.7634,16.8154 Z M10.3744,0.5774 L0.0004,27.0004 L4.7834,27.0004 L7.0614,21.1104 L18.4544,21.1104 L20.7324,27.0004 L25.5154,27.0004 L15.1404,0.5774 L10.3744,0.5774 Z" mask="url(#b)"/>
    </g>
    <polygon fill="#00C0D4" points="63.961 85.873 53.586 112.295 58.369 112.295 66.344 91.89 74.319 112.295 79.102 112.295 68.727 85.873"/>
    <g transform="translate(210 85.295)">
      <mask id="d" fill="white">
        <use xlink:href="#c"/>
      </mask>
      <path fill="#00C0D4" d="M12.9516,6.5942 L19.2246,22.7042 L6.6786,22.7042 L12.9516,6.5942 Z M15.3346,0.5772 L10.5686,0.5772 L0.1936,27.0002 L25.7096,27.0002 L15.3346,0.5772 Z" mask="url(#d)"/>
    </g>
    <g transform="translate(85 85.295)">
      <mask id="f" fill="white">
        <use xlink:href="#e"/>
      </mask>
      <path fill="#00C0D4" d="M9.3833,16.8154 L13.3783,6.5944 L17.3723,16.8154 L9.3833,16.8154 Z M10.9953,0.5774 L0.6203,27.0004 L5.4033,27.0004 L7.6813,21.1104 L19.0743,21.1104 L21.3533,27.0004 L26.1353,27.0004 L15.7613,0.5774 L10.9953,0.5774 Z" mask="url(#f)"/>
    </g>
    <g transform="translate(242 85.295)">
      <mask id="h" fill="white">
        <use xlink:href="#g"/>
      </mask>
      <path fill="#00C0D4" d="M9.1875,16.8154 L13.1825,6.5944 L17.1765,16.8154 L9.1875,16.8154 Z M21.1575,27.0004 L25.9395,27.0004 L15.5655,0.5774 L10.7995,0.5774 L0.4245,27.0004 L5.2075,27.0004 L7.4855,21.1104 L18.8785,21.1104 L21.1575,27.0004 Z" mask="url(#h)"/>
    </g>
  </g>
</svg>
