<svg xmlns="http://www.w3.org/2000/svg" width="44" height="44" viewBox="0 0 44 44">
  <g fill="none" fill-rule="evenodd" transform="translate(1 1)">
    <path stroke="#4F5F6C" d="M38.4999,42.4996 L4.4999,42.4996 C2.2909,42.4996 0.4999,40.7086 0.4999,38.4996 L0.4999,4.4996 C0.4999,2.2906 2.2909,0.4996 4.4999,0.4996 L38.4999,0.4996 C40.7089,0.4996 42.4999,2.2906 42.4999,4.4996 L42.4999,38.4996 C42.4999,40.7086 40.7089,42.4996 38.4999,42.4996 Z"/>
    <path fill="#6F7472" d="M27.0878,23.2457 C27.6038,23.8897 27.3458,24.9207 26.7008,25.4347 C25.7998,26.0797 24.6398,26.4667 23.6088,26.7247 L26.5718,29.6867 C27.2168,30.3317 27.2168,31.2327 26.5718,31.8777 C25.9288,32.5207 25.0258,32.5207 24.3818,31.8777 L21.4188,28.9137 L18.4558,31.8777 C18.0688,32.2637 17.6828,32.3917 17.2968,32.3917 C16.9098,32.3917 16.3948,32.1357 16.1368,31.8777 C15.4928,31.2327 15.4928,30.3317 16.1368,29.6867 L19.1008,26.7247 C18.0688,26.4667 17.0388,26.0797 16.0078,25.4347 C15.2348,24.9207 14.9778,24.0177 15.4928,23.2457 C16.0078,22.4727 16.9098,22.2147 17.6828,22.7297 C19.8728,24.1467 22.7068,24.1467 24.8978,22.7297 C25.6708,22.3437 26.5718,22.4727 27.0878,23.2457 Z M21.2899,22.2148 C18.3269,22.2148 16.0079,19.8958 15.8789,16.8038 C15.8789,13.8408 18.3269,11.3918 21.2899,11.3918 C24.2539,11.3918 26.7009,13.8408 26.7009,16.8038 C26.7009,19.7668 24.2539,22.2148 21.2899,22.2148 Z M21.2899,14.7418 C20.1309,14.7418 19.1009,15.6438 19.1009,16.9318 C19.1009,18.0928 20.0019,19.1228 21.2899,19.1228 C22.4499,19.1228 23.4799,18.0928 23.4799,16.9318 C23.4799,15.7728 22.4499,14.7418 21.2899,14.7418 Z"/>
  </g>
</svg>
