<svg xmlns="http://www.w3.org/2000/svg" width="42" height="42" viewBox="0 0 42 42">
  <g fill="none" fill-rule="evenodd">
    <path fill="#9737B9" d="M37.9996,41.9994 L3.9996,41.9994 C1.7906,41.9994 -0.0004,40.2094 -0.0004,37.9994 L-0.0004,4.0004 C-0.0004,1.7904 1.7906,0.0004 3.9996,0.0004 L37.9996,0.0004 C40.2086,0.0004 41.9996,1.7904 41.9996,4.0004 L41.9996,37.9994 C41.9996,40.2094 40.2086,41.9994 37.9996,41.9994"/>
    <path fill="#FFFFFF" d="M28.4039,27.0736 C28.4039,27.9676 27.1189,28.9886 26.2179,28.9886 L15.0329,28.9886 C14.1329,28.9886 12.9749,28.0946 12.9749,27.0736 L12.9749,20.0526 L16.0609,20.0526 C15.8039,20.0526 15.6749,21.0736 15.6749,21.7116 C15.6749,24.3926 17.8609,26.5626 20.6899,26.5626 C23.5179,26.5626 25.7039,24.5196 25.7039,21.7116 C25.7039,21.0736 25.5759,19.9246 25.3179,19.9246 L28.4039,19.9246 L28.4039,27.0736 Z M17.9899,19.7976 C18.6329,19.0306 19.5329,18.5196 20.5609,18.5196 C21.5899,18.5196 22.6189,19.0306 23.1329,19.7976 C23.5179,20.3076 23.7759,20.9456 23.7759,21.5846 C23.7759,23.3716 22.3609,24.7756 20.5609,24.7756 C18.7609,24.7756 17.3469,23.3716 17.3469,21.5846 C17.4749,20.9456 17.6039,20.3076 17.9899,19.7976 L17.9899,19.7976 Z M26.9899,14.6906 L27.1189,14.6906 L27.1189,15.0736 L27.1189,17.7546 L24.2899,17.7546 L24.2899,14.6906 L26.9899,14.6906 Z M26.2179,12.3926 L15.0329,12.3926 C13.1039,12.3926 11.6899,14.1796 11.6899,16.0946 L11.6899,19.7976 L11.6899,27.2016 C11.6899,29.1156 13.1039,30.3926 15.0329,30.3926 L26.2179,30.3926 C28.1469,30.3926 29.6899,29.1156 29.6899,27.2016 L29.6899,19.7976 L29.6899,16.0946 C29.6899,14.1796 28.1469,12.3926 26.2179,12.3926 L26.2179,12.3926 Z"/>
  </g>
</svg>
