<svg xmlns="http://www.w3.org/2000/svg" width="44" height="44" viewBox="0 0 44 44">
  <g fill="none" fill-rule="evenodd" transform="translate(1 1)">
    <path stroke="#4F5F6C" d="M38.4989,42.4996 L4.4999,42.4996 C2.2899,42.4996 0.4999,40.7086 0.4999,38.4996 L0.4999,4.4996 C0.4999,2.2906 2.2899,0.4996 4.4999,0.4996 L38.4989,0.4996 C40.7079,0.4996 42.4989,2.2906 42.4989,4.4996 L42.4989,38.4996 C42.4989,40.7086 40.7079,42.4996 38.4989,42.4996 Z"/>
    <path fill="#6F7472" d="M28.9042,27.5739 C28.9042,28.4679 27.6182,29.4879 26.7182,29.4879 L15.5332,29.4879 C14.6332,29.4879 13.4752,28.5949 13.4752,27.5739 L13.4752,20.5529 L16.5612,20.5529 C16.3042,20.5529 16.1752,21.5739 16.1752,22.2119 C16.1752,24.8919 18.3612,27.0629 21.1902,27.0629 C24.0182,27.0629 26.2042,25.0199 26.2042,22.2119 C26.2042,21.5739 26.0752,20.4249 25.8182,20.4249 L28.9042,20.4249 L28.9042,27.5739 Z M18.4902,20.2969 C19.1332,19.5309 20.0332,19.0199 21.0612,19.0199 C22.0902,19.0199 23.1182,19.5309 23.6332,20.2969 C24.0182,20.8069 24.2752,21.4459 24.2752,22.0849 C24.2752,23.8719 22.8612,25.2759 21.0612,25.2759 C19.2612,25.2759 17.8462,23.8719 17.8462,22.0849 C17.9752,21.4459 18.1042,20.8069 18.4902,20.2969 L18.4902,20.2969 Z M27.4902,15.1899 L27.6182,15.1899 L27.6182,15.5739 L27.6182,18.2549 L24.7902,18.2549 L24.7902,15.1899 L27.4902,15.1899 Z M26.7182,12.8919 L15.5332,12.8919 C13.6042,12.8919 12.1902,14.6799 12.1902,16.5949 L12.1902,20.2969 L12.1902,27.7009 C12.1902,29.6159 13.6042,30.8919 15.5332,30.8919 L26.7182,30.8919 C28.6472,30.8919 30.1902,29.6159 30.1902,27.7009 L30.1902,20.2969 L30.1902,16.5949 C30.1902,14.6799 28.6472,12.8919 26.7182,12.8919 L26.7182,12.8919 Z"/>
  </g>
</svg>
