<svg xmlns="http://www.w3.org/2000/svg" width="44" height="44" viewBox="0 0 44 44">
  <g fill="none" fill-rule="evenodd" transform="translate(1 1)">
    <path stroke="#4F5F6C" d="M38.4999,42.4996 L4.4999,42.4996 C2.2909,42.4996 0.4999,40.7086 0.4999,38.4996 L0.4999,4.4996 C0.4999,2.2906 2.2909,0.4996 4.4999,0.4996 L38.4999,0.4996 C40.7089,0.4996 42.4999,2.2906 42.4999,4.4996 L42.4999,38.4996 C42.4999,40.7086 40.7089,42.4996 38.4999,42.4996 Z"/>
    <path fill="#6F7472" d="M24.5116,25.2955 C24.5116,24.2245 23.7466,23.3075 22.3206,23.3075 L18.2046,23.3075 L18.2046,27.2575 L22.3206,27.2575 C23.6966,27.2575 24.5116,26.5185 24.5116,25.2955 L24.5116,25.2955 Z M24.1806,18.3625 C24.1806,17.2925 23.4156,16.5025 22.1926,16.5025 L18.2046,16.5025 L18.2046,20.1975 L22.1926,20.1975 C23.4156,20.1975 24.1806,19.4335 24.1806,18.3625 L24.1806,18.3625 Z M14.5856,30.3925 L14.5856,13.3925 L22.9826,13.3925 C26.2196,13.3925 27.8756,15.4575 27.8756,17.7255 C27.8756,19.8665 26.5506,21.2935 24.9456,21.6245 C26.7546,21.9055 28.2076,23.6635 28.2076,25.8045 C28.2076,28.3545 26.4996,30.3925 23.2626,30.3925 L14.5856,30.3925 Z"/>
  </g>
</svg>
