<svg xmlns="http://www.w3.org/2000/svg" width="42" height="42" viewBox="0 0 42 42">
  <g fill="none" fill-rule="evenodd">
    <path fill="#FF821B" d="M37.9996,41.9994 L3.9996,41.9994 C1.7906,41.9994 -0.0004,40.2094 -0.0004,37.9994 L-0.0004,4.0004 C-0.0004,1.7904 1.7906,0.0004 3.9996,0.0004 L37.9996,0.0004 C40.2086,0.0004 41.9996,1.7904 41.9996,4.0004 L41.9996,37.9994 C41.9996,40.2094 40.2086,41.9994 37.9996,41.9994"/>
    <path fill="#FFFFFF" d="M26.5875,22.7455 C27.1035,23.3905 26.8455,24.4205 26.2005,24.9355 C25.2995,25.5795 24.1405,25.9665 23.1085,26.2245 L26.0715,29.1865 C26.7165,29.8315 26.7165,30.7325 26.0715,31.3775 C25.4285,32.0215 24.5255,32.0215 23.8825,31.3775 L20.9185,28.4145 L17.9555,31.3775 C17.5685,31.7645 17.1835,31.8925 16.7965,31.8925 C16.4095,31.8925 15.8945,31.6355 15.6365,31.3775 C14.9925,30.7325 14.9925,29.8315 15.6365,29.1865 L18.6005,26.2245 C17.5685,25.9665 16.5385,25.5795 15.5085,24.9355 C14.7345,24.4205 14.4775,23.5175 14.9925,22.7455 C15.5085,21.9725 16.4095,21.7145 17.1835,22.2295 C19.3725,23.6465 22.2075,23.6465 24.3975,22.2295 C25.1705,21.8435 26.0715,21.9725 26.5875,22.7455 Z M20.7897,21.7146 C17.8267,21.7146 15.5087,19.3956 15.3797,16.3046 C15.3797,13.3406 17.8267,10.8926 20.7897,10.8926 C23.7537,10.8926 26.2007,13.3406 26.2007,16.3046 C26.2007,19.2666 23.7537,21.7146 20.7897,21.7146 Z M20.7897,14.2426 C19.6307,14.2426 18.6007,15.1436 18.6007,16.4316 C18.6007,17.5926 19.5017,18.6226 20.7897,18.6226 C21.9497,18.6226 22.9797,17.5926 22.9797,16.4316 C22.9797,15.2726 21.9497,14.2426 20.7897,14.2426 Z"/>
  </g>
</svg>
