<svg xmlns="http://www.w3.org/2000/svg" width="42" height="42" viewBox="0 0 42 42">
  <g fill="none" fill-rule="evenodd">
    <path fill="#4982AB" d="M37.9997,41.9994 L3.9997,41.9994 C1.7907,41.9994 -0.0003,40.2094 -0.0003,37.9994 L-0.0003,4.0004 C-0.0003,1.7904 1.7907,0.0004 3.9997,0.0004 L37.9997,0.0004 C40.2087,0.0004 41.9997,1.7904 41.9997,4.0004 L41.9997,37.9994 C41.9997,40.2094 40.2087,41.9994 37.9997,41.9994"/>
    <path fill="#FFFFFF" d="M24.0124,24.7953 C24.0124,23.7243 23.2474,22.8073 21.8204,22.8073 L17.7044,22.8073 L17.7044,26.7573 L21.8204,26.7573 C23.1964,26.7573 24.0124,26.0183 24.0124,24.7953 L24.0124,24.7953 Z M23.6804,17.8623 C23.6804,16.7923 22.9154,16.0023 21.6924,16.0023 L17.7044,16.0023 L17.7044,19.6973 L21.6924,19.6973 C22.9154,19.6973 23.6804,18.9333 23.6804,17.8623 L23.6804,17.8623 Z M14.0854,29.8933 L14.0854,12.8933 L22.4834,12.8933 C25.7194,12.8933 27.3764,14.9573 27.3764,17.2253 C27.3764,19.3663 26.0504,20.7933 24.4454,21.1253 C26.2544,21.4053 27.7074,23.1643 27.7074,25.3053 C27.7074,27.8543 25.9994,29.8933 22.7634,29.8933 L14.0854,29.8933 Z"/>
  </g>
</svg>
